<?xml version="1.0" encoding="UTF-8"?>
<svg width="286px" height="184px" viewBox="0 0 286 184" version="1.1" xmlns="http://www.w3.org/2000/svg" xmlns:xlink="http://www.w3.org/1999/xlink">
    <!-- Generator: Sketch 54.1 (76490) - https://sketchapp.com -->
    <title>5tasks</title>
    <desc>Created with Sketch.</desc>
    <defs>
        <linearGradient x1="50.0000256%" y1="100.000014%" x2="50.0000256%" y2="5.31044307e-06%" id="linearGradient-1">
            <stop stop-color="#808080" stop-opacity="0.25" offset="0%"></stop>
            <stop stop-color="#808080" stop-opacity="0.12" offset="53.514%"></stop>
            <stop stop-color="#808080" stop-opacity="0.1" offset="100%"></stop>
        </linearGradient>
    </defs>
    <g id="Page-1" stroke="none" stroke-width="1" fill="none" fill-rule="evenodd">
        <g id="onboarding-2" transform="translate(-34.000000, -240.000000)">
            <g id="5tasks" transform="translate(34.000000, 240.000000)">
                <ellipse id="Oval" stroke="#497CBD" cx="171" cy="24.5" rx="7" ry="7.5"></ellipse>
                <path d="M185.721557,10.2880998 L183.918623,8.31362731 C183.740146,8.11484185 183.496186,8.00194585 183.240951,8.00002492 C182.985716,7.99810399 182.740347,8.10731724 182.559366,8.30339737 L171.241685,20.5303906 L166.455971,15.2755534 C166.278256,15.0791283 166.036179,14.9676858 165.783024,14.9657551 C165.529869,14.9638243 165.286384,15.0715636 165.106163,15.2652588 L163.28439,17.2294367 C162.908918,17.6366517 162.904701,18.297396 163.274941,18.7102588 L170.543204,26.6901787 C170.916991,27.0992285 171.523491,27.1038205 171.902461,26.70047 L185.712116,11.7689218 C185.894576,11.5744823 185.998204,11.3087105 185.999977,11.0306532 C186.00175,10.7525959 185.90152,10.4852816 185.721557,10.2880998 Z" id="Path" fill="#F19D5C" fill-rule="nonzero"></path>
                <rect id="Rectangle" fill="#F2F2F2" fill-rule="nonzero" x="0" y="20" width="131" height="17" rx="8.5"></rect>
                <rect id="Rectangle" fill="#F2F2F2" fill-rule="nonzero" x="0" y="49" width="131" height="17" rx="8.5"></rect>
                <rect id="Rectangle" fill="#F2F2F2" fill-rule="nonzero" x="1" y="77" width="131" height="17" rx="8.5"></rect>
                <rect id="Rectangle" fill="#F2F2F2" fill-rule="nonzero" x="1" y="106" width="131" height="17" rx="8.5"></rect>
                <rect id="Rectangle-Copy-2" fill="#F2F2F2" fill-rule="nonzero" x="1" y="137" width="131" height="17" rx="8.5"></rect>
                <rect id="Rectangle" stroke="#497CBD" x="4" y="15" width="131" height="17" rx="8.5"></rect>
                <rect id="Rectangle" stroke="#497CBD" x="5" y="45" width="131" height="17" rx="8.5"></rect>
                <rect id="Rectangle" stroke="#497CBD" x="5" y="74" width="131" height="17" rx="8.5"></rect>
                <rect id="Rectangle" stroke="#497CBD" x="5" y="101" width="131" height="17" rx="8.5"></rect>
                <rect id="Rectangle-Copy" stroke="#497CBD" x="5" y="133" width="131" height="17" rx="8.5"></rect>
                <ellipse id="Oval" stroke="#497CBD" cx="171" cy="52.5" rx="7" ry="7.5"></ellipse>
                <ellipse id="Oval" stroke="#497CBD" cx="171" cy="81.5" rx="7" ry="7.5"></ellipse>
                <ellipse id="Oval" stroke="#497CBD" cx="171" cy="110.5" rx="7" ry="7.5"></ellipse>
                <ellipse id="Oval-Copy" stroke="#497CBD" cx="171" cy="142.5" rx="7" ry="7.5"></ellipse>
                <path d="M185.721557,37.2880986 L183.918623,35.313626 C183.740146,35.1148413 183.496186,35.0019458 183.240951,35.0000249 C182.985716,34.998104 182.740348,35.1073167 182.559366,35.303396 L171.241685,47.5303901 L166.455971,42.2755525 C166.278256,42.0791274 166.036179,41.9676849 165.783024,41.9657542 C165.529869,41.9638235 165.286384,42.0715627 165.106163,42.265258 L163.28439,44.229436 C162.908918,44.6366511 162.904701,45.2973953 163.274941,45.7102582 L170.543204,53.6901787 C170.916991,54.0992285 171.523491,54.1038205 171.902461,53.70047 L185.712116,38.7689207 C185.894576,38.5744812 185.998204,38.3087093 185.999977,38.030652 C186.00175,37.7525947 185.90152,37.4852804 185.721557,37.2880986 Z" id="Path" fill="#F19D5C" fill-rule="nonzero"></path>
                <path d="M185.721564,96.2881005 L183.91863,94.3136262 C183.740153,94.1148414 183.496193,94.0019459 183.240958,94.0000249 C182.985723,93.998104 182.740354,94.1073168 182.559373,94.3033963 L171.241688,106.530401 L166.455972,101.275559 C166.278257,101.079133 166.03618,100.967691 165.783025,100.96576 C165.52987,100.963829 165.286385,101.071569 165.106163,101.265264 L163.28439,103.229444 C162.908918,103.636659 162.904701,104.297404 163.274941,104.710267 L170.543206,112.690178 C170.916993,113.099227 171.523493,113.103821 171.902464,112.700473 L185.712123,97.7689077 C185.894579,97.5744686 185.998204,97.3087 185.999977,97.0306465 C186.00175,96.7525929 185.901523,96.4852818 185.721564,96.2881005 Z" id="Path" fill="#F19D5C" fill-rule="nonzero"></path>
                <path d="M185.721564,127.2881 L183.91863,125.313626 C183.740153,125.114841 183.496193,125.001946 183.240958,125.000025 C182.985723,124.998104 182.740354,125.107317 182.559373,125.303396 L171.241688,137.530401 L166.455972,132.275559 C166.278257,132.079133 166.03618,131.967691 165.783025,131.96576 C165.52987,131.963829 165.286385,132.071569 165.106163,132.265264 L163.28439,134.229444 C162.908918,134.636659 162.904701,135.297404 163.274941,135.710267 L170.543206,143.690178 C170.916993,144.099227 171.523493,144.103821 171.902464,143.700473 L185.712123,128.768908 C185.894579,128.574469 185.998204,128.3087 185.999977,128.030646 C186.00175,127.752593 185.901523,127.485282 185.721564,127.2881 Z" id="Path-Copy" fill="#F19D5C" fill-rule="nonzero"></path>
                <ellipse id="Oval" fill="#F2F2F2" fill-rule="nonzero" cx="233" cy="176.5" rx="44" ry="7.5"></ellipse>
                <ellipse id="Oval" stroke="#497CBD" cx="241" cy="172.5" rx="44" ry="7.5"></ellipse>
                <path d="M261.978768,34.9369667 C261.848721,34.7758262 261.714954,34.619057 261.577468,34.4666591 C262.632914,33.1644157 263.725319,31.8290123 263.7156,30.1553817 C263.703776,28.1214809 262.044542,26.5610262 261.424797,24.6383329 C260.581337,22.0215908 261.751788,19.2183092 262.233198,16.498586 C262.991525,12.024641 261.875498,7.41599774 259.189259,3.92861424 C258.701731,3.30211295 258.135707,2.69615701 257.410296,2.4474886 C256.306478,2.06908016 255.132492,2.59481987 253.982477,2.74926139 C250.186257,3.25909522 246.732444,-0.298252614 242.918053,0.0202146618 C242.665262,0.0302013982 242.416334,0.0908041887 242.183755,0.198982443 C241.690166,0.455689644 241.422575,1.02212575 241.117467,1.51040302 C239.932802,3.40633745 237.943025,4.34863489 235.963491,5.32247062 C235.714757,5.40196276 235.477878,5.52008907 235.260182,5.67319483 C234.665664,5.97422669 234.080368,6.28806403 233.528034,6.64359625 C229.790572,9.04939313 230.332707,12.415438 232.536382,14.4946112 C232.105784,16.8286599 229.91172,18.884006 230.289716,21.2836784 C230.586047,23.1648835 232.387343,24.4451888 232.734322,26.3164281 C232.935852,27.4032489 232.618428,28.438921 232.177716,29.4669455 C227.995407,30.519541 223.270758,32.4580353 222.90203,35.8789716 C222.260551,41.8304429 220.329779,58.2672879 220.329779,58.2672879 C220.329779,58.2672879 218.093039,71.4368844 226.592651,65.2112419 L226.483532,65.5617021 C224.951711,70.6045725 223.906218,75.807004 223.363918,81.0850691 C223.277731,81.8701267 223.104736,82.4888563 222.790192,82.6908883 C222.676158,82.7641373 222.901729,82.8802229 223.392669,83.0254141 C223.337114,83.2469293 223.277322,83.4671725 223.224121,83.6893778 C222.290145,87.5383828 221.693254,91.474888 221.441432,95.4462293 C221.202131,98.9639762 220.756111,102.461467 220.106106,105.917268 C218.093039,116.931841 220.106106,131.059227 220.106106,131.059227 L224.499065,153.552907 L225.250608,157.39843 C225.746991,157.995446 226.353756,158.471674 227.031153,158.795915 C227.325216,160.173979 227.529233,161.572948 227.641673,162.982339 C227.653591,163.139214 227.663191,163.298148 227.672501,163.457261 C227.139924,163.530947 226.663652,163.854351 226.368969,164.3424 C224.803249,166.736867 226.592651,168.65244 220.553444,173.441393 C218.993224,174.678617 218.24069,175.803511 218.049821,176.75918 L218.049821,176.75918 L218.049821,176.759208 C217.844387,177.787866 218.290628,178.619849 219.087153,179.183248 L219.088805,179.18439 C219.224444,179.279789 219.365571,179.365627 219.511316,179.441374 L219.51817,179.444872 C219.59197,179.483242 219.667638,179.51977 219.745173,179.554454 L219.746226,179.554922 C219.823985,179.589557 219.903517,179.622259 219.98482,179.653028 L219.998908,179.658202 C220.075293,179.686861 220.153064,179.713792 220.232221,179.738994 L220.249233,179.744533 C220.331443,179.770386 220.414988,179.794341 220.499868,179.816399 C220.507076,179.818284 220.514394,179.819963 220.521628,179.821805 C220.599544,179.841694 220.678457,179.859943 220.758369,179.876553 C220.768716,179.878715 220.778956,179.88104 220.78933,179.883129 C220.874764,179.90043 220.961159,179.915878 221.048515,179.929473 C221.057974,179.930933 221.067544,179.932131 221.077032,179.933562 C221.155246,179.945283 221.234122,179.955426 221.313662,179.963991 C221.328776,179.965628 221.343778,179.967441 221.358945,179.968974 C221.446114,179.977788 221.533901,179.984809 221.622308,179.990034 C221.633609,179.99067 221.644995,179.990969 221.656313,179.99157 C221.734566,179.995632 221.813211,179.998169 221.892247,179.999183 C221.910788,179.999447 221.929258,179.999819 221.947837,179.999914 C222.036126,180.000337 222.124698,179.999227 222.213642,179.995911 C222.225299,179.995488 222.237001,179.994639 222.248674,179.994143 C222.327295,179.990766 222.40608,179.985845 222.485031,179.979382 C222.505943,179.977699 222.526817,179.976094 222.547747,179.974192 C222.636389,179.966153 222.725099,179.956626 222.813826,179.944775 C222.824379,179.943369 222.83492,179.941544 222.845472,179.940081 C222.924924,179.929034 223.004314,179.916359 223.083642,179.902056 C223.105733,179.89811 223.127809,179.894192 223.149882,179.889998 C223.238074,179.873265 223.326131,179.855111 223.413859,179.834448 C223.422309,179.832445 223.430704,179.830107 223.439154,179.828088 C223.519361,179.808824 223.599211,179.78756 223.678815,179.764951 C223.70133,179.758566 223.723756,179.752149 223.746189,179.745484 C223.83303,179.719727 223.919579,179.692596 224.005397,179.662752 L224.019663,179.657505 C224.101288,179.628886 224.182205,179.597876 224.262684,179.56552 C224.284378,179.556795 224.306015,179.547943 224.327596,179.538965 C224.412268,179.503668 224.496471,179.467099 224.579544,179.427573 C228.605676,177.511999 236.881614,172.483603 236.881614,172.483603 L236.881506,172.437828 L236.881383,172.407196 L236.881149,172.362827 L236.880904,172.323002 L236.880386,172.253245 L236.879839,172.190871 C236.879608,172.16601 236.879374,172.141223 236.879076,172.113529 L236.878217,172.040118 C236.877819,172.006694 236.877424,171.973827 236.876933,171.937159 C236.876591,171.912327 236.876155,171.885009 236.875763,171.858765 C236.875179,171.820288 236.874658,171.783296 236.873974,171.741878 C236.872869,171.675658 236.871608,171.605945 236.870193,171.532739 L236.870193,171.532739 C236.829059,169.440296 236.639242,164.633739 235.763236,164.82129 C235.464803,164.885187 235.261936,165.341296 235.052622,165.866476 C235.01874,165.797027 234.984348,165.726087 234.949059,165.652167 C234.096505,163.864187 232.863447,160.795409 232.743214,157.796121 C233.430976,157.254095 234.067939,156.639665 234.644866,155.961743 C234.644866,155.961743 234.195279,153.902489 233.812806,151.730698 C233.481757,149.848647 233.199926,147.880399 233.302823,147.102194 C233.526505,145.426067 230.618734,132.495914 230.618734,132.495914 C230.618734,132.495914 230.918462,129.651281 231.520146,125.698003 C232.689957,118.014134 234.993798,106.139957 238.431664,102.782901 C238.512184,102.706266 238.590479,102.632047 238.670998,102.565011 C238.670998,102.565011 241.131411,103.043904 243.144477,118.129081 L243.728264,124.847968 C243.895448,126.708767 244.185481,128.554079 244.596119,130.369621 C245.196523,133.264823 245.385857,136.242921 245.157544,139.200437 C244.902552,143.160889 244.792953,147.822935 244.745977,151.096174 C244.710197,153.562478 244.710197,155.243403 244.710197,155.243403 C245.126569,155.625877 245.576014,155.963611 246.05224,156.251878 L246.05224,158.449022 C246.047457,158.915277 245.879027,159.361921 245.581411,159.69757 L245.573575,159.706706 C245.256284,160.094933 245.025231,160.557235 244.898239,161.057951 C244.507778,161.822314 244.177345,163.063834 244.039183,165.06074 C243.591836,171.525816 243.368159,170.80746 243.368159,170.80746 C243.111325,171.506608 242.940781,172.239676 242.860977,172.987535 L242.860977,172.987535 L242.860977,172.987767 C242.848281,173.127543 242.840267,173.268343 242.837933,173.409403 C242.837565,173.431545 242.837659,173.453655 242.837577,173.475784 C242.83736,173.540425 242.838432,173.604846 242.840793,173.669049 C242.841994,173.700636 242.843553,173.732135 242.845471,173.763546 C242.848352,173.811263 242.852047,173.858722 242.856556,173.905923 C242.860679,173.948919 242.865502,173.991677 242.871027,174.034197 C242.875027,174.064536 242.879123,174.094774 242.883915,174.124824 C242.893034,174.182171 242.903651,174.238879 242.915766,174.294949 C242.921199,174.320013 242.927245,174.344756 242.93331,174.369527 C242.947605,174.428076 242.963058,174.486052 242.981026,174.542714 C242.986689,174.560522 242.99323,174.577817 242.999277,174.595428 C243.016971,174.647135 243.036366,174.697867 243.057464,174.747624 C243.063852,174.762678 243.069656,174.778068 243.076373,174.792931 C243.102448,174.850761 243.131732,174.906619 243.162872,174.961291 C243.171486,174.976418 243.180085,174.9915 243.189111,175.006379 C243.222176,175.060983 243.257947,175.11359 243.296265,175.163969 C243.305233,175.175734 243.314751,175.187103 243.324043,175.198665 C243.366144,175.251712 243.411157,175.30194 243.458837,175.349074 C243.463808,175.353955 243.46939,175.358385 243.474439,175.363206 C243.523569,175.409825 243.575201,175.45323 243.629063,175.49319 C243.637444,175.499445 243.645321,175.506079 243.653882,175.512203 C243.713086,175.554218 243.774527,175.592381 243.837883,175.626489 C243.850456,175.633329 243.863003,175.640162 243.875862,175.646761 C243.944251,175.681925 244.014391,175.712912 244.085954,175.739579 C244.098214,175.744139 244.111018,175.748231 244.123498,175.752616 C244.205182,175.78168 244.28823,175.805995 244.372291,175.825458 L244.381247,175.827198 C244.468331,175.846767 244.560906,175.861671 244.657267,175.873233 C244.670577,175.874839 244.68337,175.876887 244.696872,175.878321 C244.792339,175.888497 244.893023,175.894078 244.997776,175.896049 C245.017244,175.896415 245.036819,175.896685 245.056615,175.896752 C245.162812,175.89713 245.273279,175.893667 245.389135,175.885304 C245.407129,175.884004 245.425833,175.882 245.444058,175.880493 C245.567227,175.870235 245.694313,175.856408 245.828607,175.835876 C250.52576,175.117536 252.762502,174.638642 252.538826,171.765282 C252.404015,170.033412 252.02543,167.518659 251.745907,165.793921 C251.60415,164.917463 251.343373,164.068792 250.972127,163.275736 C250.983811,163.14112 250.994578,163.002622 251.004428,162.860241 C251.084945,161.672576 251.080468,160.259846 250.749436,159.314013 L250.852508,157.217592 C252.017779,156.895809 253.070686,156.209422 253.880872,155.24341 C253.880872,155.24341 253.914427,153.689391 254.012845,151.630147 C254.160463,148.447897 254.455715,144.056429 254.999242,142.31326 C255.893938,139.4399 254.999242,129.38311 254.999242,129.38311 C254.999242,129.38311 251.64413,112.142907 254.77556,104.720044 C257.538245,98.1722805 257.513874,91.6223229 254.856939,85.2383276 C254.909419,85.1932133 254.957142,85.1419161 254.999236,85.0853742 C254.999236,85.0853742 254.328213,84.6064809 254.551886,79.099207 C254.722592,74.8960463 253.591185,70.5565346 253.045433,68.7355441 C253.900777,69.133949 254.777289,69.4763015 255.670262,69.7607639 C260.814764,71.4368907 261.262114,65.2112768 261.262114,65.2112768 L262.380519,55.8728115 L263.706957,41.9531427 L263.706834,41.9526021 C264.070562,40.8604899 264.557931,38.1329059 261.978768,34.9369667 Z M239.240291,25.7104308 C239.234025,25.8645289 239.224388,26.018522 239.210107,26.1717584 C239.168528,26.6671418 239.072253,27.1552786 238.923361,27.6256291 C239.076322,26.9901342 239.169285,26.3393301 239.200809,25.6833189 C239.213867,25.6925375 239.227207,25.7013045 239.240297,25.7104403 L239.240291,25.7104308 Z M252.762529,59.7039585 C252.842022,59.8619997 252.917396,60.0159515 252.990065,60.1672004 L252.425158,59.8535984 C252.634379,58.7244907 252.973165,57.6284296 253.433561,56.5911452 C253.989391,55.3840269 254.446859,54.1262458 254.800712,52.8322424 C254.784819,54.3276262 254.851127,55.8227064 254.99928,57.3094852 C255.446615,61.1406386 252.762529,59.7039585 252.762529,59.7039585 Z" id="Shape" fill="url(#linearGradient-1)" fill-rule="nonzero"></path>
                <path d="M234.383639,8.62776257 C233.648963,9.14845569 232.881101,9.75034425 232.619641,10.6337237 C232.197954,12.0584393 233.256306,13.4888973 233.36098,14.9755298 C233.551324,17.6788168 230.610062,19.912892 231.043696,22.5856811 C231.34092,24.4176761 233.14766,25.6644787 233.495688,27.486775 C234.003258,30.1444323 231.231679,32.4881212 231.449788,35.1881327 C231.565969,36.6263408 232.528287,37.8477291 233.620365,38.7391428 C235.153257,39.9858997 236.987724,40.7682944 238.921356,41 C238.792756,38.6880455 237.142931,36.5845643 237.426076,34.2875231 C237.620232,32.712429 238.686393,31.424465 239.303227,29.971659 C240.386239,27.4209113 240.03976,24.4685111 239.39005,21.7634348 C238.74034,19.0583586 237.802561,16.3842674 237.755364,13.5966468 C237.726953,11.9187399 238.484405,9.45230706 237.928782,7.86013265 C237.253325,5.92456301 235.642349,7.73567128 234.383639,8.62776257 Z" id="Path" fill="#3F3D56" fill-rule="nonzero"></path>
                <path d="M234.383639,8.62775606 C233.648963,9.14845235 232.881101,9.75033785 232.619641,10.6337174 C232.197954,12.0584331 233.256306,13.4888944 233.36098,14.9755271 C233.551324,17.6788144 230.610062,19.9128898 231.043696,22.5856792 C231.34092,24.4176743 233.14766,25.6644771 233.495688,27.4867705 C234.003258,30.1444281 231.231679,32.4881172 231.449788,35.1881289 C231.565969,36.6263372 232.528287,37.8477256 233.620365,38.7391425 C235.153258,39.9858983 236.987724,40.7682929 238.921356,41 C238.792756,38.6880452 237.142931,36.5845607 237.426076,34.2875224 C237.620232,32.7124281 238.686393,31.424464 239.303227,29.9716578 C240.386239,27.4209098 240.03976,24.4685093 239.39005,21.7634328 C238.74034,19.0583563 237.802537,16.3842586 237.75534,13.5966315 C237.726929,11.9187244 238.48438,9.45229438 237.928758,7.86011669 C237.253325,5.92457183 235.642349,7.73567716 234.383639,8.62775606 Z" id="Path" fill="#000000" fill-rule="nonzero" opacity="0.1"></path>
                <path d="M237,165.633342 L234.857136,167.646812 C234.857136,167.646812 227.238094,171.450018 228.190474,166.304507 C228.451004,164.774875 228.506197,163.220567 228.354762,161.678019 C228.157972,159.525 227.703516,157.399686 227,155.342329 L234.142848,154 C232.954759,157.507896 234.911892,161.924085 236.133312,164.172445 C236.62619,165.078513 237,165.633342 237,165.633342 Z" id="Path" fill="#FFB9B9" fill-rule="nonzero"></path>
                <path d="M250.959481,162.308182 C250.912447,163.010827 250.832772,163.710426 250.720762,164.404292 C250.720762,164.404292 245.485758,168.281753 245.066957,163.94812 C244.794739,161.124416 245.410376,159.84941 245.875239,159.304297 L245.882575,159.295599 C246.161936,158.973891 246.319382,158.549089 246.323373,158.106292 L246.323373,153 L250.930164,154.596588 L250.720765,158.930218 C251.03067,159.831173 251.034862,161.17687 250.959481,162.308182 Z" id="Path" fill="#FFB9B9" fill-rule="nonzero"></path>
                <path d="M237,166.332203 L235.072078,168.525773 C235.072078,168.525773 228.217271,172.669166 229.074122,167.063402 C229.308519,165.396948 229.358176,163.703611 229.22193,162.023087 C230.723561,161.772042 232.501524,163.651195 232.501524,163.651195 C235.012091,167.682468 235.689007,166.156721 236.220254,164.740656 C236.663685,165.727746 237,166.332203 237,166.332203 Z" id="Path" fill="#000000" fill-rule="nonzero" opacity="0.05"></path>
                <path d="M231.456457,163.666447 C231.456457,163.666447 228.471474,160.471601 226.978983,162.929176 C225.486491,165.386751 227.192195,167.352808 221.43544,172.267955 C215.678686,177.183102 221.43544,180.377948 225.273276,178.411888 C229.111113,176.445828 237,171.284925 237,171.284925 C237,171.284925 237,163.174932 235.933935,163.420691 C234.86787,163.66645 235.081082,169.564624 231.456457,163.666447 Z" id="Path" fill="#3F3D56" fill-rule="nonzero"></path>
                <path d="M251,162.76322 C250.952647,163.569585 250.87243,164.372454 250.759659,165.168744 C250.759659,165.168744 245.489061,169.61857 245.067412,164.645235 C244.793343,161.404714 245.413166,159.9415 245.88119,159.315921 C246.254191,158.966121 246.752559,158.901616 247.175651,159.148376 C248.018947,158.682446 248.946579,159.459863 249.713967,160.464992 C250.234007,161.145691 250.667642,161.920627 251,162.76322 L251,162.76322 Z" id="Path" fill="#000000" fill-rule="nonzero" opacity="0.05"></path>
                <path d="M247.230264,159.127503 C247.230264,159.127503 244.698485,157.780752 244.238161,163.841126 C243.777838,169.9015 243.547677,169.228126 243.547677,169.228126 C243.547677,169.228126 241.246062,174.615126 246.079456,173.941749 C250.91285,173.268372 253.214465,172.819458 252.984308,170.12596 C252.84558,168.502507 252.456015,166.145179 252.168383,164.528401 C251.894304,162.926971 251.140667,161.440367 250.002299,160.255643 C249.162486,159.393526 248.150911,158.728466 247.230264,159.127503 Z" id="Path" fill="#3F3D56" fill-rule="nonzero"></path>
                <path d="M254.230203,127.688794 C254.230203,127.688794 255.085957,137.55467 254.230203,140.37349 C253.710333,142.083569 253.427931,146.391673 253.286738,149.51352 C253.192605,151.533685 253.160507,153.058196 253.160507,153.058196 C249.095671,157.756232 244.389016,153.058196 244.389016,153.058196 C244.389016,153.058196 244.389016,151.409181 244.423239,148.989695 C244.468171,145.778589 244.572999,141.205045 244.816894,137.319776 C245.03532,134.418832 244.854291,131.498309 244.279906,128.656611 C243.887028,126.874784 243.609643,125.064628 243.449833,123.239744 L242.891456,116.6484 C240.965998,101.849588 238.612679,101.379784 238.612679,101.379784 C238.535664,101.445548 238.460777,101.518367 238.383761,101.593537 C235.095522,104.886867 232.891954,116.535638 231.77306,124.073642 C231.197563,127.951875 230.910879,130.742508 230.910879,130.742508 C230.910879,130.742508 233.692084,143.427204 233.478146,145.071517 C233.379731,145.834942 233.649295,147.765836 233.965934,149.612159 C234.331759,151.74272 234.761786,153.762884 234.761786,153.762884 C229.413313,160.105232 225.776354,155.172296 225.776354,155.172296 L225.057523,151.399773 L220.855759,129.333096 C220.855759,129.333096 218.930301,115.473892 220.855759,104.668408 C221.477594,101.277177 221.904176,97.8462893 222.13297,94.3961425 C222.3736,90.5017506 222.944436,86.6404788 223.838068,82.8624697 C224.099066,81.7443309 224.388596,80.6348129 224.706658,79.5339158 C224.706658,79.5339158 232.740061,78 240.304934,78 C245.978597,78 251.386989,78.8620983 252.946587,81.8829323 C253.306,82.5782356 253.632614,83.2751085 253.92643,83.9735511 C256.634889,90.3652341 256.716187,96.9307434 254.01628,103.493903 C251.02112,110.775865 254.230203,127.688794 254.230203,127.688794 Z" id="Path" fill="#3F3D56" fill-rule="nonzero"></path>
                <path d="M236.980191,43 C236.980191,43 225.635072,30.4097588 234.197426,31.3423697 C236.138941,31.5545339 237.453267,31.1768282 238.324486,30.4680489 C239.317709,29.6613347 239.735127,28.4256307 239.850713,27.1362885 C240.086186,24.5646227 239.120778,21.7831155 239.120778,21.7831155 C239.120778,21.7831155 250.679958,11.7575527 248.325311,24.347794 C248.066754,25.6272394 247.916286,26.9297817 247.875792,28.2391116 C247.83725,30.9110289 248.644254,31.9345718 249.776635,32.3542452 C251.686035,33.0653723 254.524458,32.0698193 255.817368,34.3733536 C258.172015,38.5700997 236.980191,43 236.980191,43 Z" id="Path" fill="#FFB9B9" fill-rule="nonzero"></path>
                <path d="M236.980191,43 C236.980191,43 225.635072,30.4097588 234.197426,31.3423697 C236.138941,31.5545339 237.453267,31.1768282 238.324486,30.4680489 C239.317709,29.6613347 239.735127,28.4256307 239.850713,27.1362885 C240.086186,24.5646227 239.120778,21.7831155 239.120778,21.7831155 C239.120778,21.7831155 250.679958,11.7575527 248.325311,24.347794 C248.066754,25.6272394 247.916286,26.9297817 247.875792,28.2391116 C247.83725,30.9110289 248.644254,31.9345718 249.776635,32.3542452 C251.686035,33.0653723 254.524458,32.0698193 255.817368,34.3733536 C258.172015,38.5700997 236.980191,43 236.980191,43 Z" id="Path" fill="#000000" fill-rule="nonzero" opacity="0.1"></path>
                <path d="M254,18.0028152 C253.997227,23.5250101 249.968602,28 245,28 C240.031398,28 236.002773,23.5250101 236,18.0028152 C236,17.8167203 236.00419,17.6306097 236.014653,17.4468448 C236.285321,12.0392143 240.379433,7.8533587 245.250594,8.00393802 C250.121755,8.15451734 254.000195,12.5868238 254,18.0028152 L254,18.0028152 Z" id="Path" fill="#FFB9B9" fill-rule="nonzero"></path>
                <path d="M236.980191,43 C236.980191,43 225.635072,30.9441841 234.197426,31.837208 C236.138941,32.0403663 237.453267,31.6786933 238.324486,31 C236.66766,33.8665973 234.803215,39.0215789 243.187898,38.5348838 C250.861903,38.0906051 250.731328,34.9002729 249.776635,32.8061318 C251.686035,33.4870733 254.524458,32.5337791 255.817368,34.739534 C258.172015,38.7581383 236.980191,43 236.980191,43 Z" id="Path" fill="#000000" fill-rule="nonzero" opacity="0.05"></path>
                <path d="M254,85.8452449 C252.078282,88.988115 227.581589,84.8675812 224,83.4993814 C224.257631,82.2347829 224.543425,80.9799344 224.857383,79.7348361 C224.857383,79.7348361 232.78713,78 240.254392,78 C245.854848,78 251.193455,78.9750204 252.732929,82.391539 C253.087705,83.1779168 253.410105,83.9660697 253.700129,84.7559979 C253.835274,85.707083 254,85.8452449 254,85.8452449 Z" id="Path" fill="#000000" fill-rule="nonzero" opacity="0.1"></path>
                <path d="M238.78729,29 C238.78729,29 224.354598,30.2989496 223.713144,36.439439 C223.099937,42.3095288 221.254243,58.5215786 221.254243,58.5215786 C221.254243,58.5215786 219.116065,71.5110743 227.241135,65.370588 L227.13682,65.7162568 C225.671755,70.6939984 224.672488,75.8245057 224.154686,81.0273411 C224.072291,81.8016552 223.906917,82.4119141 223.606237,82.6111908 C222.537146,83.3197107 252.257802,88.0431634 254.39598,84.9729187 C254.39598,84.9729187 253.754525,84.5005731 253.968344,79.0686036 C254.182163,73.6366341 252.257802,67.9684871 252.257802,67.9684871 C252.257802,67.9684871 250.547259,62.3003464 252.899254,56.8683737 C255.251248,51.4364011 254.39598,49.7831963 254.39598,49.7831963 L262.52105,42.93419 C262.52105,42.93419 264.275755,39.6116229 261.067922,35.5103298 C259.122756,33.0600811 256.375281,31.5648083 253.431096,31.3540998 L247.826758,30.9137721 C247.826758,30.9137721 253.968355,38.2107373 242.422189,38.9192541 C230.876022,39.6277709 238.78729,29 238.78729,29 Z" id="Path" fill="#497CBD" fill-rule="nonzero"></path>
                <path d="M229.915043,42 C229.915043,42 230.25487,45.5555552 229.575218,46.6666657 C228.895565,47.7777761 228.725648,52.8888896 229.575218,56" id="Path" fill="#000000" fill-rule="nonzero" opacity="0.05"></path>
                <path d="M239,102.60146 C235.641052,106.02934 233.390099,118.154028 232.247145,126 C230.656172,115.078243 237.266987,97 237.266987,97 L239,102.60146 Z" id="Path" fill="#000000" fill-rule="nonzero" opacity="0.1"></path>
                <path d="M236,154.494658 C230.488532,161.362531 226.740737,156.020853 226.740737,156.020853 L226,151.935739 C228.083328,153.184667 231.604056,154.1538 235.1799,150 C235.556874,152.307102 236,154.494658 236,154.494658 Z" id="Path" fill="#000000" fill-rule="nonzero" opacity="0.1"></path>
                <path d="M254,150.595593 C253.904785,152.892534 253.872318,154.625912 253.872318,154.625912 C249.760757,159.96761 245,154.625912 245,154.625912 C245,154.625912 245,152.750972 245.034617,150 C246.819901,151.399522 250.029088,152.940606 254,150.595593 Z" id="Path" fill="#000000" fill-rule="nonzero" opacity="0.1"></path>
                <rect id="Rectangle" fill="#CDD0DB" fill-rule="nonzero" x="231" y="49" width="14" height="7" rx="3.5"></rect>
                <rect id="Rectangle" fill="#000000" fill-rule="nonzero" opacity="0.05" x="231" y="49" width="14" height="7" rx="3.5"></rect>
                <rect id="Rectangle" fill="#3F3D56" fill-rule="nonzero" x="231" y="49" width="14" height="7" rx="3.5"></rect>
                <circle id="Oval" fill="#9DA7C0" fill-rule="nonzero" cx="241.5" cy="52.5" r="1"></circle>
                <path d="M224.177833,60.8985374 C224.570051,59.6454114 225.458315,58.6419656 226.604938,58.1567058 C227.511931,57.7959413 228.256947,57.0786628 228.688793,56.1504335 C229.536151,54.139395 231.040037,52.0660288 234.907172,53.448274 C238.774306,54.8305192 233.832968,55.7520129 233.832968,55.7520129 C233.832968,55.7520129 242.641441,54.3697677 239.203988,57.134258 C235.766536,59.8987484 231.469719,61.5113631 231.469719,61.5113631 L229.353973,63.9135356 C228.740678,64.6234382 227.873739,65.0185333 226.971462,64.9993313 C226.069185,64.9801293 225.217549,64.54846 224.631005,63.8130227 C224.001471,62.9999424 223.828366,61.8866497 224.177833,60.8985374 Z" id="Path" fill="#000000" fill-rule="nonzero" opacity="0.05"></path>
                <path d="M224.177833,59.8985374 C224.57005,58.6454107 225.458314,57.6419646 226.604938,57.1567058 C227.511931,56.795942 228.256946,56.0786631 228.68879,55.1504335 C229.536149,53.139395 231.040037,51.0660288 234.907172,52.448274 C238.774307,53.8305192 233.832965,54.7520129 233.832965,54.7520129 C233.832965,54.7520129 242.641442,53.3697708 239.203989,56.134258 C235.766536,58.8987453 231.469716,60.5113662 231.469716,60.5113662 L229.353971,62.9135356 C228.740675,63.6234382 227.873736,64.0185333 226.971459,63.9993313 C226.069183,63.9801293 225.217546,63.54846 224.631002,62.8130227 C224.00147,61.9999412 223.828366,60.8866493 224.177833,59.8985374 Z" id="Path" fill="#FFB9B9" fill-rule="nonzero"></path>
                <path d="M254,65.147831 L252.470882,69 L250.513596,67.5067136 L245.043692,63.3350479 L241.330099,60.8424685 C236.087376,56.7637028 241.330099,56.0839095 241.330099,56.0839095 C239.36407,55.1775164 241.330099,54.2711234 241.330099,54.2711234 C248.320395,52.6849371 247.009713,58.5764889 247.009713,58.5764889 L251.437635,60.9580351 L252.907776,61.7488616 L254,65.147831 Z" id="Path" fill="#000000" fill-rule="nonzero" opacity="0.05"></path>
                <path d="M255,64.147834 L253.470872,68 L251.513588,66.5067136 L246.04369,62.3350479 L242.330095,59.8424685 C237.087381,55.7637028 242.330095,55.0839095 242.330095,55.0839095 C240.364068,54.1775164 242.330095,53.2711234 242.330095,53.2711234 C249.320386,51.6849371 248.009706,57.5764889 248.009706,57.5764889 L252.437624,59.9580351 L253.907762,60.7488616 L255,64.147834 Z" id="Path" fill="#FFB9B9" fill-rule="nonzero"></path>
                <path d="M256,63.6889275 L254.245614,68 L252,66.3288191 C254.032588,66.4023696 256.433577,65.408275 253.06016,59 L254.746867,59.8850373 L256,63.6889275 Z" id="Path" fill="#000000" fill-rule="nonzero" opacity="0.05"></path>
                <path d="M262.588165,41 L263,42.8852434 L261.734729,56.8151399 L260.667936,66.1604507 C260.667936,66.1604507 260.241218,72.3906546 255.333968,70.7132919 C250.426718,69.0359292 250,67.3585664 250,67.3585664 C250,67.3585664 257.040836,69.9944231 252.560304,60.6491123 C252.560304,60.6491123 255.120608,62.0868531 254.693893,58.2528807 C254.267178,54.4189083 254.693893,47.7094541 254.693893,47.7094541 L262.588165,41 Z" id="Path" fill="#497CBD" fill-rule="nonzero"></path>
                <path d="M253.999992,18.1248196 C253.999957,22.8540671 251.087747,26.9535117 246.984749,28 C246.683106,27.0204818 246.469441,26.04569 246.689378,25.0543984 C247.114622,23.1306948 249.089941,21.7273504 248.870012,19.761267 C248.851536,19.5399245 248.783033,19.3275643 248.671009,19.1443496 C248.229025,18.489782 247.328295,18.8147137 246.611889,18.9771827 C244.681327,19.3368375 242.810696,18.0402371 242.229721,15.9397461 C240.589387,17.7535216 238.182794,18.3802379 236,17.562068 C236.270889,12.0884806 240.368336,7.85157011 245.243466,8.00398605 C250.118595,8.15640199 254.000195,12.6427693 254,18.1248196 L253.999992,18.1248196 Z" id="Path" fill="#000000" fill-rule="nonzero" opacity="0.05"></path>
                <path d="M242.322831,15.2266875 C242.90617,17.3393256 244.787047,18.6434446 246.727867,18.2809492 C247.448979,18.1191065 248.35443,17.7920114 248.798953,18.4506389 C248.912371,18.633681 248.981266,18.8468779 248.998807,19.0690895 C249.221614,21.0481721 247.234913,22.4590164 246.807005,24.3950011 C246.366361,26.3885882 247.658133,28.3141092 247.933117,30.3449233 C248.083539,31.4558641 247.924485,32.5875642 247.935825,33.7112301 C247.947165,34.834896 248.171566,36.0420429 248.912427,36.7963119 C249.653288,37.5505809 251.022673,37.55819 251.519008,36.5828169 C253.889408,37.991146 252.942896,42.3563888 254.742835,44.5904246 C255.735582,45.8226063 257.368672,46.1189416 258.840673,45.9610826 C259.185581,45.9552558 259.52105,45.8335256 259.803918,45.6115536 C260.047801,45.3415677 260.212226,44.9940194 260.275037,44.6157354 C260.64657,43.0346553 260.582604,41.364024 260.091596,39.8246952 C259.855203,39.0889176 259.516642,38.3450076 259.604262,37.5689327 C259.711585,36.9670085 259.964397,36.4099942 260.33492,35.9590916 C261.466642,34.3815804 263.011158,32.8562321 262.999939,30.8295126 C262.988802,28.81758 261.426125,27.2739971 260.842435,25.372071 C260.048049,22.7836248 261.150403,20.0106324 261.603801,17.32029 C262.319976,12.9032725 261.271477,8.35567433 258.736976,4.88616088 C258.277815,4.26643202 257.744731,3.66702468 257.061533,3.42103176 C256.021942,3.04671539 254.916262,3.56678091 253.833159,3.7195587 C250.257831,4.22387004 247.004986,0.704972639 243.412544,1.01999595 C243.174226,1.02994085 242.939666,1.0899218 242.720964,1.1968443 C242.256096,1.45076347 242.004078,2.01108509 241.716731,2.494098 C240.130945,5.15965304 237.013239,5.91922838 234.568914,7.5717837 C227.430508,12.3979195 236.86351,21.1343269 242.322831,15.2266875 Z" id="Path" fill="#3F3D56" fill-rule="nonzero"></path>
                <path d="M225.272333,177.373075 C222.780491,178.694898 219.480991,177.763491 219.047463,175.554951 C218.5251,178.470859 222.425766,179.901059 225.272333,178.391052 C229.110478,176.355074 237,171.010626 237,171.010626 C237,171.010626 236.999974,170.61532 236.989121,170 C236.759362,170.155532 229.053085,175.367541 225.272333,177.373075 Z" id="Path" fill="#FFFFFF" fill-rule="nonzero" opacity="0.3"></path>
                <path d="M252.972377,171 C252.706952,173.017659 250.410131,173.44177 246.07867,174.04467 C243.875896,174.351274 243.156926,173.399826 243.02465,172.273889 C242.880654,173.715986 243.301005,175.328413 246.07867,174.941783 C250.912616,174.268948 253.214489,173.82039 252.984306,171.129046 C252.980721,171.087171 252.976282,171.042842 252.972377,171 Z" id="Path" fill="#FFFFFF" fill-rule="nonzero" opacity="0.3"></path>
                <g id="Group" opacity="0.1" transform="translate(232.000000, 1.000000)" fill="#000000" fill-rule="nonzero">
                    <path d="M28.472838,43.9930553 C26.9595687,44.1507708 25.2807036,43.854693 24.260124,42.6235849 C22.4097297,40.3914771 23.3827754,36.0300359 20.9459199,34.6229366 C20.4356765,35.5974592 19.0278889,35.589863 18.2662793,34.8362366 C17.5046697,34.0826102 17.2739602,32.8765183 17.2622993,31.7538412 C17.2506384,30.6311641 17.4141636,29.5004282 17.259524,28.3904493 C16.9768436,26.3613866 15.648864,24.4375479 16.101844,22.4456958 C16.5417537,20.5113835 18.5841425,19.1017521 18.355086,17.1244046 C18.3370596,16.9023881 18.2662359,16.6893777 18.1496384,16.5064975 C17.6926506,15.8484486 16.7618086,16.1752627 16.0204874,16.3369553 C14.0252603,16.6991302 12.0916596,15.3961422 11.4919692,13.2853405 C6.4752157,18.5614511 -1.8037681,12.1471954 1.7364098,7.28237218 C-3.7878234,12.1884211 5.2752276,19.8590451 10.6257102,14.2319567 C11.2254006,16.3427584 13.1590013,17.6457464 15.1542284,17.2835715 C15.8955496,17.1218662 16.8263916,16.7950521 17.2833794,17.4531137 C17.3999761,17.6359958 17.4708006,17.8490067 17.4888299,18.0710239 C17.7178835,20.0483778 15.6754976,21.4580028 15.2355879,23.392312 C14.7825905,25.3841704 16.1105817,27.308006 16.3932679,29.3370655 C16.5479075,30.4470444 16.3843997,31.5777676 16.3960461,32.7004574 C16.4076925,33.8231472 16.6383991,35.0292391 17.4000261,35.7828496 C18.1616531,36.5364602 19.5694262,36.5440754 20.0796696,35.5695528 C22.5165222,36.9766489 21.5434765,41.3381092 23.3938708,43.5702011 C24.4144504,44.8013092 26.0933155,45.097387 27.6065848,44.9396683 C27.9611642,44.933843 28.306039,44.812219 28.596842,44.590443 C28.7848161,44.4031093 28.9229445,44.1637247 28.996607,43.8976268 C28.8249032,43.9460928 28.6496432,43.9780245 28.472838,43.9930553 Z" id="Path"></path>
                    <path d="M10.8688607,0.563799296 C10.9432515,0.442267606 11.0153832,0.315852465 11.0892433,0.190635211 C11.0713213,0.199010915 11.0525786,0.204962324 11.0349843,0.21429507 C10.5570846,0.468006338 10.2979986,1.02783486 10.0026017,1.51042183 C9.90099343,1.67641479 9.79342953,1.83522465 9.67991,1.98685141 C10.1363386,1.57692965 10.5367165,1.09771828 10.8688607,0.563799296 L10.8688607,0.563799296 Z" id="Path"></path>
                </g>
                <path d="M231.028769,68 C231.028769,68 230.500608,69.98393 233.970291,70.8656646 C237.439973,71.7473991 231.028769,68 231.028769,68 Z" id="Path" fill="#000000" fill-rule="nonzero" opacity="0.1"></path>
                <path d="M229.425312,72 C229.425312,72 227.355506,73.9124057 232.347995,77.2339538 C237.340485,80.555502 229.425312,72 229.425312,72 Z" id="Path" fill="#000000" fill-rule="nonzero" opacity="0.1"></path>
                <path d="M225,98 C225,98 230.231364,96.5898425 230.946308,94.474609 C231.661252,92.3593756 225,98 225,98 Z" id="Path" fill="#000000" fill-rule="nonzero" opacity="0.1"></path>
                <path d="M225,129 C225,129 227.292791,130.137784 228.744102,129.986073 C230.195412,129.834362 225,129 225,129 Z" id="Path" fill="#000000" fill-rule="nonzero" opacity="0.1"></path>
                <path d="M226,132 C226,132 226.919306,132.866595 228.607023,132.990397 C230.29474,133.1142 226,132 226,132 Z" id="Path" fill="#000000" fill-rule="nonzero" opacity="0.1"></path>
                <path d="M262.963554,140.698863 C264.75935,141.424324 266.771619,140.81019 267.982063,139.167241 C269.192507,137.524291 269.337061,135.210943 268.342575,133.397855 C267.348088,131.584767 265.431513,130.667474 263.562723,131.110166 L263.675337,133.683522 L262.579714,131.478132 C261.504422,132.039587 260.673712,133.052476 260.270134,134.294214 C260.12681,134.72918 260.03968,135.184521 260.011341,135.646657 C259.869237,137.874507 261.074313,139.936787 262.963554,140.698863 L262.963554,140.698863 Z" id="Path" fill="#57B894" fill-rule="nonzero"></path>
                <path d="M268.83629,171 C268.454687,168.853538 270.10825,166.95063 271.74159,165.713748 C273.37493,164.476866 275.283394,163.261577 275.840692,161.162522 C276.641628,158.145813 274.255884,155.383073 272.398995,153.000603 C271.021358,151.23254 269.838292,149.290343 268.874554,147.214655 C268.455566,146.399336 268.170186,145.508708 268.031555,144.58378 C267.885145,143.246588 268.274061,141.915955 268.665881,140.640451 C269.971157,136.391369 271.366724,132.177885 272.85258,128" id="Path" stroke="#3F3D56"></path>
                <path d="M262.963552,140.698861 C264.759347,141.424325 266.771617,140.810193 267.982062,139.167242 C269.192507,137.524292 269.337061,135.210943 268.342574,133.397854 C267.348087,131.584765 265.431511,130.667472 263.562721,131.110167 L263.675335,133.68352 L262.579713,131.478134 C261.504421,132.039586 260.673711,133.052474 260.270134,134.294212 C260.126811,134.729178 260.039681,135.184519 260.011341,135.646655 C259.869237,137.874505 261.074312,139.936786 262.963552,140.698861 L262.963552,140.698861 Z" id="Path" stroke="#3F3D56"></path>
                <path d="M268.27014,126.294162 C268.792527,124.692448 270.013519,123.497056 271.509218,123.122997 L271.879751,125.569985 L272.566713,123 C274.523801,123.032257 276.237645,124.466698 276.805879,126.548069 C277.374114,128.629439 276.666385,130.88027 275.055323,132.115462 C273.444261,133.350654 271.299446,133.286854 269.750157,131.957653 C268.200868,130.628452 267.602514,128.33877 268.270137,126.294162 L268.27014,126.294162 Z" id="Path" fill="#57B894" fill-rule="nonzero"></path>
                <path d="M268.270126,125.294172 C268.792514,123.692449 270.013514,122.497053 271.509221,122.122997 L271.879751,124.569985 L272.566713,122 C274.523801,122.032257 276.237645,123.466698 276.805879,125.548069 C277.374114,127.629439 276.666385,129.88027 275.055323,131.115462 C273.444261,132.350654 271.299446,132.286854 269.750157,130.957653 C268.200868,129.628452 267.602514,127.33877 268.270137,125.294162 L268.270126,125.294172 Z" id="Path" stroke="#3F3D56"></path>
                <path d="M270.966192,152.699541 C273.116416,153.566135 275.509646,152.50232 276.528484,150.227045 C277.547321,147.95177 276.867453,145.189296 274.948348,143.806563 L274.420564,145.780859 L274.046317,143.305834 C274.042618,143.303896 274.038788,143.302282 274.034863,143.301005 C271.698914,142.359525 269.118309,143.700237 268.270922,146.295568 C267.423535,148.890899 268.630254,151.758051 270.966203,152.699531 L270.966192,152.699541 Z" id="Path" fill="#57B894" fill-rule="nonzero"></path>
                <path d="M271.965435,151.699502 C274.115929,152.566208 276.509459,151.502256 277.528424,149.226688 C278.54739,146.95112 277.867436,144.18829 275.948091,142.805379 L275.420243,144.779929 L275.045947,142.304585 C275.042248,142.302647 275.038419,142.301032 275.034494,142.299756 C273.52321,141.690646 271.834248,142.023596 270.603823,143.173186 C269.373398,144.322775 268.788442,146.114355 269.069301,147.873054 C269.35016,149.631753 270.454166,151.090383 271.96545,151.699492 L271.965435,151.699502 Z" id="Path" stroke="#3F3D56"></path>
                <path d="M266.069149,159.865582 C266.437373,162.193991 268.222792,163.917568 270.348945,163.997136 C272.475097,164.076705 274.360815,162.490515 274.869164,160.19491 C275.377513,157.899305 274.36954,155.521771 272.452971,154.495768 C270.536401,153.469765 268.235114,154.075743 266.9366,155.948346 L268.942195,159.302942 L266.2018,157.522428 C265.98932,158.280394 265.943827,159.083998 266.069149,159.865582 L266.069149,159.865582 Z" id="Path" fill="#57B894" fill-rule="nonzero"></path>
                <path d="M267.069149,159.865586 C267.437375,162.193994 269.222795,163.917569 271.348947,163.997136 C273.475099,164.076703 275.360816,162.490513 275.869165,160.194909 C276.377513,157.899305 275.36954,155.521772 273.452971,154.495769 C271.536402,153.469765 269.235116,154.075742 267.9366,155.948344 L269.942197,159.302943 L267.2018,157.52243 C266.98932,158.280397 266.943827,159.084002 267.069149,159.865586 Z" id="Path" stroke="#3F3D56"></path>
                <path d="M262,174.109657 C262,174.109657 265.762441,172.323031 266.89634,171.344656 C268.03024,170.366281 272.683912,169.198048 272.965207,170.767145 C273.246502,172.336243 278.619439,178.571129 274.371679,178.612647 C270.123918,178.654164 264.501747,179.457131 263.370025,178.621809 C262.238303,177.786487 262,174.109657 262,174.109657 Z" id="Path" fill="#656380" fill-rule="nonzero"></path>
                <path d="M274.44835,176.237329 C270.200282,176.271255 264.577733,176.927234 263.445932,176.24482 C262.583995,175.725125 262.240535,173.860346 262.125614,173 C262.046024,173.003387 262,173.004846 262,173.004846 C262,173.004846 262.238319,176.008623 263.37012,176.691037 C264.501922,177.373451 270.124479,176.717475 274.372541,176.683549 C275.598788,176.673764 276.022356,176.241914 275.999098,175.602317 C275.828751,175.988746 275.36107,176.230042 274.44835,176.237329 Z" id="Path" fill="#000000" fill-rule="nonzero" opacity="0.2"></path>
            </g>
        </g>
    </g>
</svg>