<?xml version="1.0" encoding="UTF-8"?>
<svg width="324px" height="212px" viewBox="0 0 324 212" version="1.1" xmlns="http://www.w3.org/2000/svg" xmlns:xlink="http://www.w3.org/1999/xlink">
    <!-- Generator: Sketch 54.1 (76490) - https://sketchapp.com -->
    <title>declutter</title>
    <desc>Created with Sketch.</desc>
    <g id="Page-1" stroke="none" stroke-width="1" fill="none" fill-rule="evenodd">
        <g id="onboarding-3" transform="translate(-19.000000, -224.000000)">
            <g id="declutter" transform="translate(19.000000, 224.000000)">
                <ellipse id="Oval" fill="#D3D9E5" cx="162" cy="186.152897" rx="162" ry="25.431908"></ellipse>
                <polygon id="Path" fill="#FBE6D6" points="268.503056 136.690726 268.503056 154.319662 263.832708 163.723688 263.832708 163.723688 263.68504 164.021357 251.324397 163.20638 246.572976 162.891371 235.544236 162.165984 235.544236 141.07773 246.572976 141.386959 251.503914 141.525678 263.980375 141.878257"></polygon>
                <polygon id="Path" fill="#000000" fill-rule="nonzero" opacity="0.1" points="268.503056 137.731122 268.503056 154.319662 267.359357 156.617204 267.359357 156.617204 266.192493 158.972545 266.192493 158.972545 263.832708 163.723688 264.096193 146.094752 264.148311 142.537175 266.392279 140.060453 266.392279 140.060453 267.370938 138.979597"></polygon>
                <polygon id="Path" fill="#EC791F" points="269.134263 132.008943 269.134263 138.16751 268.503056 139.176117 267.368043 140.97658 266.36622 142.571854 264.148311 146.097642 264.096193 146.094752 234.571367 144.577507 234.571367 138.505639 234.646649 138.424719 238.170402 134.615713 239.447292 133.237188 241.75496 130.746017"></polygon>
                <polygon id="Path" fill="#000000" fill-rule="nonzero" opacity="0.1" points="264.148311 140.022884 264.148311 146.097642 234.571367 144.577507 234.571367 138.505639 234.646649 138.424719"></polygon>
                <polygon id="Path" fill="#000000" fill-rule="nonzero" opacity="0.15" points="269.134263 132.008943 269.134263 138.16751 264.148311 146.097642 264.148311 140.022884"></polygon>
                <polygon id="Path" fill="#6C370F" points="253.267239 143.586241 253.267239 167.399755 246.960965 180.098369 246.960965 180.101259 246.76118 180.502967 230.063164 179.401881 223.643968 178.977053 208.746917 177.994456 208.746917 149.510719 223.643968 149.929768 230.306381 150.117617 247.160751 150.591575"></polygon>
                <polygon id="Path" fill="#000000" fill-rule="nonzero" opacity="0.1" points="253.267239 144.990776 253.267239 167.399755 251.726863 170.500713 251.726863 170.503603 250.145952 173.682592 250.145952 173.682592 246.960965 180.098369 247.317105 156.284855 247.389491 151.481692 250.418123 148.137974 250.418123 148.135084 251.738445 146.67853"></polygon>
                <polygon id="Path" fill="#AC5917" points="254.12429 137.260054 254.12429 145.580334 253.267239 146.941519 251.738445 149.372 250.383378 151.527932 247.389491 156.290635 247.317105 156.284855 207.435282 154.238742 207.435282 146.034062 207.533727 145.927132 212.296729 140.782951 214.019517 138.918908 217.137909 135.55207"></polygon>
                <polygon id="Path" fill="#000000" fill-rule="nonzero" opacity="0.1" points="247.389491 148.085954 247.389491 156.290635 207.435282 154.238742 207.435282 146.034062 207.533727 145.927132"></polygon>
                <polygon id="Path" fill="#000000" fill-rule="nonzero" opacity="0.15" points="254.12429 137.260054 254.12429 145.580334 247.389491 156.290635 247.389491 148.085954"></polygon>
                <polygon id="Path" fill="#3F3D56" fill-rule="nonzero" points="277.16622 155.414968 277.16622 170.153915 273.263164 178.014686 273.263164 178.014686 273.13866 178.263225 262.804826 177.581188 258.832279 177.318199 249.61319 176.711301 249.61319 159.082365 258.832279 159.339574 262.955389 159.455173 273.387668 159.749952"></polygon>
                <polygon id="Path" fill="#000000" fill-rule="nonzero" opacity="0.1" points="277.16622 156.281965 277.16622 170.153915 276.213619 172.072868 276.213619 172.072868 275.23496 174.040951 275.23496 174.043841 273.263164 178.014686 273.483217 163.27574 273.529544 160.30194 275.402895 158.229818 275.402895 158.229818 276.222306 157.328141"></polygon>
                <polygon id="Path" fill="#3F3D56" fill-rule="nonzero" points="277.696086 151.499032 277.696086 156.648994 277.16622 157.48998 276.21941 158.995665 275.382627 160.33084 273.529544 163.27574 273.483217 163.27574 248.799571 162.007034 248.799571 156.929322 248.860375 156.862853 251.807936 153.678084 252.876354 152.527868 254.804718 150.441296"></polygon>
                <polygon id="Path" fill="#000000" fill-rule="nonzero" opacity="0.1" points="273.529544 158.198028 273.529544 163.27574 248.799571 162.007034 248.799571 156.929322 248.860375 156.862853"></polygon>
                <polygon id="Path" fill="#000000" fill-rule="nonzero" opacity="0.15" points="277.696086 151.499032 277.696086 156.648994 273.529544 163.27574 273.529544 158.198028"></polygon>
                <path d="M168.097802,84.7807334 C170.477855,85.6824101 176.019732,85.7835598 178.480858,85.7806698 C179.227882,85.7806698 179.691153,85.7806698 179.691153,85.7806698 L181.269169,82.5756714 L179.691153,79.902431 C179.691153,79.902431 178.243432,79.5065025 176.320858,79.1597037 C173.483324,78.6481756 169.600536,78.249357 167.750349,79.3966829 C164.646434,81.309856 164.993887,83.6045077 168.097802,84.7807334 Z" id="Path" fill="#FEC2BE" fill-rule="nonzero"></path>
                <path d="M178.480858,85.7806698 C179.227882,85.7806698 179.691153,85.7806698 179.691153,85.7806698 L181.269169,82.5756714 L179.691153,79.902431 C179.691153,79.902431 178.243432,79.5065025 176.320858,79.1597037 C177.881501,80.2983596 181.633995,82.7808606 178.480858,85.7806698 Z" id="Path" fill="#000000" fill-rule="nonzero" opacity="0.1"></path>
                <path d="M204.615121,46.4103422 L203.917319,45.6098151 C203.917319,45.6098151 200.329866,51.2741946 199.956354,53.4127868 C199.582842,55.5513791 199.087721,58.0107602 199.087721,58.0107602 C199.087721,58.0107602 198.193029,60.7851502 197.613941,62.0162857 C197.034853,63.2474213 196.490509,64.420757 196.438391,64.9554051 C196.386273,65.4900532 196.652654,66.6662789 195.526327,67.4118962 C194.4,68.1575135 194.133619,70.1920662 194.133619,70.1920662 C194.133619,70.1920662 190.08,74.1455719 187.922895,74.2525015 C185.765791,74.3594311 179.624558,75.4287272 179.83882,76.4980234 C180.053083,77.5673195 177.267668,78.2088972 176.144236,78.4747762 C175.020804,78.7406552 183.382842,81.9427637 178.501126,86.0638888 C178.501126,86.0638888 181.60504,86.7054664 181.926434,87.4539737 C182.247828,88.202481 185.513887,87.0262553 185.513887,87.0262553 C185.513887,87.0262553 186.211689,85.3702913 188.620697,85.2633617 C191.029705,85.156432 192.260268,84.0871359 192.260268,83.9252965 C192.260268,83.7634571 194.669276,82.4311719 196.009866,82.0554733 C197.350456,81.6797746 199.11378,81.5208252 199.168794,81.1480165 C199.223807,80.7752079 207.197855,46.4103422 207.197855,46.4103422 L204.615121,46.4103422 Z" id="Path" fill="#4C4981" fill-rule="nonzero"></path>
                <path d="M204.615121,46.4103422 L203.917319,45.6098151 C203.917319,45.6098151 200.329866,51.2741946 199.956354,53.4127868 C199.582842,55.5513791 199.087721,58.0107602 199.087721,58.0107602 C199.087721,58.0107602 198.193029,60.7851502 197.613941,62.0162857 C197.034853,63.2474213 196.490509,64.420757 196.438391,64.9554051 C196.386273,65.4900532 196.652654,66.6662789 195.526327,67.4118962 C194.4,68.1575135 194.133619,70.1920662 194.133619,70.1920662 C194.133619,70.1920662 190.08,74.1455719 187.922895,74.2525015 C185.765791,74.3594311 179.624558,75.4287272 179.83882,76.4980234 C180.053083,77.5673195 177.267668,78.2088972 176.144236,78.4747762 C175.020804,78.7406552 183.382842,81.9427637 178.501126,86.0638888 C178.501126,86.0638888 181.60504,86.7054664 181.926434,87.4539737 C182.247828,88.202481 185.513887,87.0262553 185.513887,87.0262553 C185.513887,87.0262553 186.211689,85.3702913 188.620697,85.2633617 C191.029705,85.156432 192.260268,84.0871359 192.260268,83.9252965 C192.260268,83.7634571 194.669276,82.4311719 196.009866,82.0554733 C197.350456,81.6797746 199.11378,81.5208252 199.168794,81.1480165 C199.223807,80.7752079 207.197855,46.4103422 207.197855,46.4103422 L204.615121,46.4103422 Z" id="Path" fill="#8DADD6"></path>
                <path d="M212.959786,194.710156 C220.02756,196.033771 221.313137,190.623711 221.313137,190.623711 C221.313137,190.623711 222.181769,185.814768 222.517641,185.453519 C222.597634,185.314128 222.617489,185.14829 222.572654,184.994011 L222.572654,184.994011 C222.387727,184.17847 222.041194,183.408101 221.553458,182.728259 C221.110456,182.205171 221.472386,180.040569 221.472386,180.040569 L213.28118,177.956886 C213.28118,177.956886 212.557319,179.60129 212.479142,180.361358 C212.400965,181.121425 211.193566,184.572073 211.320965,185.051811 C211.448365,185.531549 210.799786,187.017004 210.718713,187.777071 C210.637641,188.537138 209.635818,189.661344 209.560536,190.063053 C209.433514,190.422955 209.285596,190.775167 209.117534,191.117899 C208.898931,191.645891 208.724606,192.19108 208.596354,192.747853 C208.176515,194.429827 212.959786,194.710156 212.959786,194.710156 Z" id="Path" fill="#CA8496" fill-rule="nonzero"></path>
                <path d="M212.959786,194.710156 C220.02756,196.033771 221.313137,190.623711 221.313137,190.623711 C221.313137,190.623711 222.181769,185.814768 222.517641,185.453519 C222.597634,185.314128 222.617489,185.14829 222.572654,184.994011 L220.870134,189.860753 C220.870134,189.860753 219.465845,192.788313 214.245362,192.346144 C211.274638,192.097605 209.81244,191.545617 209.103056,191.117899 C208.884454,191.645891 208.710129,192.19108 208.581877,192.747853 C208.176515,194.429827 212.959786,194.710156 212.959786,194.710156 Z" id="Path" fill="#000000" fill-rule="nonzero" opacity="0.1"></path>
                <path d="M218.461126,187.095033 C218.461126,187.095033 216.694906,187.135493 216.573298,185.693388 L218.461126,187.095033 Z" id="Path" fill="#000000" fill-rule="nonzero" opacity="0.1"></path>
                <path d="M187.734692,139.719435 C188.603324,141.04305 189.62252,146.814359 189.62252,146.814359 C189.62252,146.814359 190.305845,148.137974 190.265308,149.25929 C190.224772,150.380606 190.908097,152.438279 190.908097,152.438279 L193.157855,160.735439 C193.157855,160.735439 192.914638,162.937611 193.760107,164.492425 C194.605576,166.04724 194.521609,165.576171 194.119142,168.301431 C193.716676,171.026692 194.602681,173.552542 196.047507,174.353069 C197.492332,175.153597 195.404718,177.03787 195.404718,177.03787 C195.404718,177.03787 204.64118,179.523261 206.569544,178.000236 C208.497909,176.477212 205.564826,168.943009 205.564826,168.943009 C205.564826,168.943009 206.045469,162.608152 205.726971,161.686245 C205.408472,160.764339 204.038928,152.900677 204.038928,152.900677 C204.038928,152.900677 203.196354,149.33443 203.517748,148.733312 C203.839142,148.132194 203.315067,146.406871 203.315067,146.406871 C203.315067,146.406871 201.951314,144.485027 202.070027,143.88391 C202.18874,143.282792 201.66756,142.207716 201.66756,142.207716 C201.66756,142.207716 205.761716,135.953778 205.402681,134.792003 C205.043646,133.630227 205.56193,131.745954 205.56193,131.745954 C205.56193,131.745954 206.080214,130.858727 206.702735,129.800991 C207.464236,128.500495 208.384987,126.942791 208.694799,126.457273 C209.088579,125.835925 210.038284,123.206034 210.56815,121.69168 L210.944558,120.605044 C210.944558,120.605044 211.58445,132.387531 212.149062,133.589767 C212.713673,134.792003 213.553351,144.282728 213.553351,144.282728 C213.864156,145.129233 214.001031,146.029531 213.955818,146.929959 C213.874745,148.412523 215.241394,154.86587 215.241394,154.86587 C215.241394,154.86587 215.843646,159.434943 215.44118,160.645849 C215.038713,161.856755 215.360107,170.705903 215.360107,170.705903 C215.360107,170.705903 213.150885,172.439896 212.589169,173.751952 C212.027453,175.064007 212.670241,178.682274 212.670241,178.682274 C212.670241,178.682274 219.095228,181.887272 221.935657,181.046285 C224.776086,180.205298 223.620804,175.355896 223.620804,175.355896 C223.620804,175.355896 225.549169,172.148007 225.549169,170.905312 C225.549169,169.662616 226.232493,165.8565 226.232493,165.8565 C228.682038,161.365456 227.717855,150.464416 228.117426,149.582969 C228.516997,148.701522 227.28933,145.412714 226.27882,143.941709 C225.268311,142.470705 225.676568,138.450729 226.27882,137.294733 C226.881072,136.138738 225.682359,132.092752 225.682359,132.092752 C225.682359,132.092752 226.840536,124.31579 226.808686,123.113555 C226.776836,121.911319 227.813405,118.345072 227.813405,118.345072 C227.813405,118.345072 228.855764,116.501259 228.615442,115.940601 C228.375121,115.379943 229.41748,113.934948 229.136622,113.29337 C228.855764,112.651793 229.376944,110.69238 229.901019,109.536384 C230.167399,108.938156 230.500375,107.299532 230.769651,105.842977 C231.015764,104.458672 231.198177,103.241987 231.198177,103.241987 L224.570509,97.9128459 L208.025952,93.5778616 L201.800751,91.5722088 L195.737694,101.109174 C195.737694,101.109174 195.112279,102.106221 194.556354,103.256437 C194.081501,104.247703 193.655871,105.354569 193.731153,106.039497 C193.832224,106.907596 193.634112,107.78417 193.169437,108.524888 C193.169437,108.524888 189.541448,119.954796 189.62252,123.246494 C189.703592,126.538192 188.348525,133.748716 188.348525,133.748716 C188.348525,133.748716 186.851582,138.39582 187.734692,139.719435 Z" id="Path" fill="#FBE6D6"></path>
                <polygon id="Path" fill="#F6C299" points="205.029169 60.6204208 205.029169 85.6332803 198.404397 98.9734721 198.404397 98.9734721 198.193029 99.3954106 180.655335 98.2394147 173.914745 97.7943563 158.267775 96.7626301 158.267775 66.8425683 173.914745 67.2847367 180.913029 67.481256 198.612869 67.9812242"></polygon>
                <polygon id="Path" fill="#000000" fill-rule="nonzero" opacity="0.1" points="205.029169 62.0972054 205.029169 85.6332803 203.410617 88.8902985 203.410617 88.8931885 201.748633 92.2311265 201.748633 92.2340164 198.404397 98.9734721 198.777909 73.9606125 198.85319 68.9146908 202.035282 65.4004635 202.035282 65.4004635 203.422198 63.868769"></polygon>
                <polygon id="Path" fill="#F19D5C" points="205.926756 53.9792248 205.926756 62.7156632 205.029169 64.146208 203.422198 66.7009588 201.997641 68.9638206 198.85319 73.9635025 198.777909 73.9606125 156.889544 71.8104603 156.889544 63.1925115 156.99378 63.0798019 161.994209 57.6755214 163.806756 55.7218885 167.078606 52.1845413"></polygon>
                <polygon id="Path" fill="#000000" fill-rule="nonzero" opacity="0.1" points="198.85319 65.3484437 198.85319 73.9635025 156.889544 71.8104603 156.889544 63.1925115 156.99378 63.0798019"></polygon>
                <polygon id="Path" fill="#000000" fill-rule="nonzero" opacity="0.15" points="205.926756 53.9792248 205.926756 62.7156632 198.85319 73.9635025 198.85319 65.3484437"></polygon>
                <path d="M212.198284,46.8091607 C212.453083,46.7051211 229.921287,39.5061571 227.515174,38.0727223 C226.087721,37.2230654 224.330188,33.6250284 223.125684,30.8072886 C222.286005,28.8363157 221.715603,27.2526014 221.715603,27.2526014 C221.715603,27.2526014 207.695871,24.7672104 212.713673,33.3446994 C213.505086,34.6602344 214.101004,36.0834591 214.482788,37.5698641 C215.913137,43.410533 212.314102,46.7022311 212.198284,46.8091607 Z" id="Path" fill="#FEC2BE" fill-rule="nonzero"></path>
                <path d="M212.713673,33.3446994 C213.505086,34.6602344 214.101004,36.0834591 214.482788,37.5698641 C218.107893,37.3156299 221.294271,35.0796878 222.760858,31.7609851 C222.899966,31.4500332 223.02176,31.1316494 223.125684,30.8072886 C222.286005,28.8363157 221.715603,27.2526014 221.715603,27.2526014 C221.715603,27.2526014 207.695871,24.7672104 212.713673,33.3446994 Z" id="Path" fill="#000000" fill-rule="nonzero" opacity="0.1"></path>
                <path d="M203.998391,27.4924706 C203.998534,32.1160942 207.242776,36.1078733 211.775506,37.0615845 C216.308236,38.0152958 220.890802,35.67032 222.760858,31.4401963 C223.313488,30.1973384 223.597619,28.8522273 223.594745,27.4924706 C223.594745,22.0912778 219.207952,17.7127459 213.796568,17.7127459 C208.385185,17.7127459 203.998391,22.0912778 203.998391,27.4924706 L203.998391,27.4924706 Z" id="Path" fill="#FEC2BE" fill-rule="nonzero"></path>
                <path d="M194.544772,103.267997 C195.572654,104.198573 195.966434,105.970137 195.966434,105.970137 C195.966434,105.970137 200.798928,109.261835 200.465952,107.172372 C200.132976,105.08291 202.956032,96.6730404 202.956032,96.6730404 L202.634638,108.134739 C202.634638,108.134739 218.052869,107.415132 219.179196,106.290926 C220.305523,105.16672 226.889759,103.005007 226.889759,103.005007 C226.889759,103.005007 228.916568,104.620512 230.75807,105.845867 C231.004182,104.461562 231.186595,103.244877 231.186595,103.244877 L224.558928,97.9157359 L208.01437,93.5807516 L201.789169,91.5750988 L195.726113,101.112064 C195.726113,101.112064 195.100697,102.117781 194.544772,103.267997 Z" id="Path" fill="#000000" fill-rule="nonzero" opacity="0.1"></path>
                <path d="M194.040965,102.36343 C195.323646,103.166847 195.807185,105.331449 195.807185,105.331449 C195.807185,105.331449 200.625201,108.617367 200.303807,106.533685 C199.982413,104.450002 202.793887,96.0314627 202.793887,96.0314627 L202.472493,107.493161 C202.472493,107.493161 217.893619,106.773554 219.017051,105.649348 C220.140483,104.525142 226.727614,102.36343 226.727614,102.36343 C226.727614,102.36343 232.42874,106.932503 233.473995,106.533685 C234.519249,106.134866 231.626702,98.3550143 231.626702,98.3550143 L228.655979,52.823229 C228.655979,52.823229 229.458016,39.274958 228.253512,38.7952197 C228.067667,38.7201841 227.896236,38.6136081 227.74681,38.4802108 C226.953458,37.7663834 226.716032,36.3213886 226.646542,35.107593 C226.568365,33.6625983 224.64,34.3850957 224.64,34.3850957 L225.763432,35.8300904 L215.811796,41.8672786 L215.724933,41.9221884 C215.337184,41.718164 214.937908,41.5367535 214.529115,41.3788704 C213.660483,41.0407416 212.476247,40.7228427 211.708954,41.0407416 C211.280139,41.2572472 210.916478,41.5833275 210.655013,41.9857682 C210.087096,42.8380339 209.631652,43.7598342 209.299946,44.7283682 L205.686434,50.8204662 C205.686434,50.8204662 203.839142,58.912437 203.839142,59.2361158 C203.839142,59.5597946 203.277426,66.9321579 202.634638,67.7326851 C201.99185,68.5332122 201.349062,72.5445177 201.589383,73.7467533 C201.829705,74.948989 201.186917,79.4371427 201.186917,79.4371427 C198.537587,81.6017449 197.170938,88.9741082 197.170938,88.9741082 C197.170938,88.9741082 192.99571,97.2308084 192.674316,98.1931749 C192.352922,99.1555414 192.755389,101.562903 194.040965,102.36343 Z" id="Path" fill="#FFFFFF" fill-rule="nonzero"></path>
                <path d="M215.811796,42.1880674 C216.78756,43.6330622 219.607721,45.6560549 219.607721,45.6560549 L227.74681,38.7952197 C226.953458,38.0813923 226.716032,36.6363975 226.646542,35.4226019 C226.568365,33.9776071 224.64,34.7001045 224.64,34.7001045 L224.871635,34.9891035 C225.097999,35.2795935 225.189489,35.6526565 225.123144,36.0146604 C225.056799,36.3766643 224.838917,36.6932415 224.524182,36.8849366 L215.811796,42.1880674 Z" id="Path" fill="#000000" fill-rule="nonzero" opacity="0.1"></path>
                <path d="M215.811796,41.8672786 C216.78756,43.3122734 219.607721,45.3352661 219.607721,45.3352661 L227.74681,38.4744309 C226.953458,37.7606034 226.716032,36.3156087 226.646542,35.1018131 C226.568365,33.6568183 224.64,34.3793157 224.64,34.3793157 L224.871635,34.6683146 C225.097999,34.9588046 225.189489,35.3318677 225.123144,35.6938716 C225.056799,36.0558754 224.838917,36.3724526 224.524182,36.5641478 L215.811796,41.8672786 Z" id="Path" fill="#FFFFFF" fill-rule="nonzero"></path>
                <path d="M212.047721,42.9481347 C213.098767,44.2052801 214.58992,45.627155 214.520429,44.9133276 C214.450938,44.1995002 215.40933,42.6273458 216.020268,41.9221884 C215.066354,41.6194128 214.03797,41.646907 213.101662,42.0002181 C212.67335,42.2187715 212.309949,42.545615 212.047721,42.9481347 L212.047721,42.9481347 Z" id="Path" fill="#000000" fill-rule="nonzero" opacity="0.1"></path>
                <path d="M211.885576,42.4683964 C212.939517,43.7226519 214.427775,45.1474167 214.358284,44.4335893 C214.288794,43.7197619 215.14874,42.5666561 215.759678,41.8614986 C214.891046,41.5233698 213.709705,41.205471 212.939517,41.5204798 C212.509948,41.7372062 212.146114,42.064439 211.885576,42.4683964 L211.885576,42.4683964 Z" id="Path" fill="#FFFFFF" fill-rule="nonzero"></path>
                <ellipse id="Oval" fill="#FF718D" fill-rule="nonzero" cx="214.520429" cy="48.4940246" rx="1" ry="1"></ellipse>
                <ellipse id="Oval" fill="#FF718D" fill-rule="nonzero" cx="209.647399" cy="65.807952" rx="1" ry="1"></ellipse>
                <ellipse id="Oval" fill="#FF718D" fill-rule="nonzero" cx="204.131582" cy="83.3386286" rx="1" ry="1"></ellipse>
                <ellipse id="Oval" fill="#FF718D" fill-rule="nonzero" cx="203.972332" cy="102.41545" rx="1" ry="1"></ellipse>
                <ellipse id="Oval" fill="#FF718D" fill-rule="nonzero" cx="211.682895" cy="56.6698051" rx="1" ry="1"></ellipse>
                <ellipse id="Oval" fill="#FF718D" fill-rule="nonzero" cx="207.345523" cy="74.4663607" rx="1" ry="1"></ellipse>
                <ellipse id="Oval" fill="#FF718D" fill-rule="nonzero" cx="203.115282" cy="91.9421275" rx="1" ry="1"></ellipse>
                <ellipse id="Oval" fill="#FF718D" fill-rule="nonzero" cx="204.079464" cy="104.554042" rx="1" ry="1"></ellipse>
                <path d="M227.743914,38.8761394 C227.743914,38.8761394 227.636783,37.9137729 229.029491,39.5697369 C230.422198,41.2257009 233.045469,42.6706957 233.045469,42.6706957 C233.045469,42.6706957 238.989812,46.8380606 239.308311,48.7627937 C239.62681,50.6875267 241.555174,59.0222566 240.538874,61.8024265 C239.522574,64.5825964 231.756997,77.8881083 231.756997,77.8881083 C231.756997,77.8881083 233.783807,80.2925796 233.31185,83.1247694 C232.839893,85.9569591 232.240536,89.858445 232.506917,90.7138819 C232.773298,91.5693189 232.185523,93.7050211 233.086005,94.4535284 C233.986488,95.2020357 234.959357,96.4765211 232.121823,98.1960649 C232.121823,98.1960649 231.586166,99.6410597 232.06681,99.9589585 C232.547453,100.276857 224.946917,103.594565 221.947239,101.828782 C218.94756,100.062998 213.550456,85.9569591 213.434638,82.8039806 C213.31882,79.651002 215.093727,69.2210297 216.057909,66.7703185 C217.022091,64.3196074 219.914638,54.747962 221.145201,52.6093697 C222.375764,50.4707775 227.743914,38.8761394 227.743914,38.8761394 Z" id="Path" fill="#000000" fill-rule="nonzero" opacity="0.1"></path>
                <path d="M228.065308,38.8761394 C228.065308,38.8761394 227.958177,37.9137729 229.350885,39.5697369 C230.743592,41.2257009 233.366863,42.6706957 233.366863,42.6706957 C233.366863,42.6706957 239.308311,46.8380606 239.632601,48.7627937 C239.95689,50.6875267 241.879464,59.0222566 240.863164,61.8024265 C239.846863,64.5825964 232.069705,77.8881083 232.069705,77.8881083 C232.069705,77.8881083 234.096515,80.2925796 233.624558,83.1247694 C233.152601,85.9569591 232.553244,89.858445 232.819625,90.7138819 C233.086005,91.5693189 232.498231,93.7050211 233.398713,94.4535284 C234.299196,95.2020357 235.272064,96.4765211 232.434531,98.1960649 C232.434531,98.1960649 231.898874,99.6410597 232.379517,99.9589585 C232.860161,100.276857 225.259625,103.594565 222.259946,101.828782 C219.260268,100.062998 213.863164,85.9569591 213.747346,82.8039806 C213.631528,79.651002 215.406434,69.2210297 216.370617,66.7703185 C217.334799,64.3196074 220.227346,54.747962 221.457909,52.6093697 C222.688472,50.4707775 228.065308,38.8761394 228.065308,38.8761394 Z" id="Path" fill="#8DADD6"></path>
                <path d="M230.207936,47.9593766 C230.207936,47.9593766 225.604182,53.0370882 225.763432,56.403926 C225.763432,56.403926 225.699732,50.9534057 230.207936,47.9593766 Z" id="Path" fill="#000000" fill-rule="nonzero" opacity="0.1"></path>
                <path d="M223.835067,56.2969964 C223.835067,56.4588358 220.731153,68.0014541 220.890402,69.4435589 C221.049651,70.8856637 219.981233,75.1599582 219.981233,75.1599582 L218.533512,74.7842596 C218.533512,74.7842596 219.656944,68.854001 219.871206,66.6633889 C220.085469,64.4727768 223.835067,56.2969964 223.835067,56.2969964 Z" id="Path" fill="#000000" fill-rule="nonzero" opacity="0.1"></path>
                <path d="M222.604504,89.2168674 C222.711635,89.3787068 229.941555,97.5544872 227.906059,98.1411551 C225.870563,98.727823 222.604504,89.2168674 222.604504,89.2168674 Z" id="Path" fill="#000000" fill-rule="nonzero" opacity="0.1"></path>
                <path d="M228.548847,87.1331849 C228.708097,87.2401145 231.44429,93.0114236 231.759893,91.4681692 C232.075496,89.9249148 229.405898,95.6904439 228.977373,91.4132594 L228.548847,87.1331849 Z" id="Path" fill="#000000" fill-rule="nonzero" opacity="0.1"></path>
                <path d="M214.668097,40.6910528 C214.668097,40.6910528 211.682895,38.8761394 207.933298,43.5232426 C207.933298,43.5232426 205.202895,45.075167 204.400858,45.4479756 C203.59882,45.8207843 202.686756,55.7623483 202.686756,55.7623483 C202.686756,55.7623483 200.920536,60.0366429 201.40118,62.496024 C201.881823,64.9554051 200.011367,73.3999546 200.011367,73.3999546 C200.011367,73.3999546 196.904558,88.5752897 197.011689,89.0058981 C197.11882,89.4365066 200.170617,84.2489753 200.115603,81.6855546 C200.06059,79.1221339 202.686756,71.1024129 203.063164,70.6226746 C203.439571,70.1429363 206.010724,56.403926 206.010724,56.403926 C206.010724,56.403926 208.098338,50.5777071 209.436032,48.655864 C210.773727,46.734021 212.43571,43.0984141 213.130617,42.4568365 C213.630342,42.0240751 214.188909,41.6640741 214.789705,41.3875403 L214.668097,40.6910528 Z" id="Path" fill="#000000" fill-rule="nonzero" opacity="0.1"></path>
                <path d="M214.697051,40.6910528 C214.697051,40.6910528 211.34992,38.8761394 207.600322,43.5232426 C207.600322,43.5232426 204.86992,45.075167 204.067882,45.4479756 C203.265845,45.8207843 202.35378,55.7623483 202.35378,55.7623483 C202.35378,55.7623483 200.58756,60.0366429 201.068204,62.496024 C201.548847,64.9554051 199.678391,73.3999546 199.678391,73.3999546 C199.678391,73.3999546 196.571582,88.5752897 196.678713,89.0058981 C196.785845,89.4365066 199.837641,84.2489753 199.785523,81.6855546 C199.733405,79.1221339 202.35378,71.1024129 202.730188,70.6226746 C203.106595,70.1429363 205.674853,56.406816 205.674853,56.406816 C205.674853,56.406816 207.762466,50.5805971 209.100161,48.658754 C210.437855,46.736911 212.099839,43.1013041 212.794745,42.4597265 C213.489651,41.8181488 214.775228,41.3904303 214.775228,41.3904303 L214.697051,40.6910528 Z" id="Path" fill="#8DADD6"></path>
                <path d="M200.011367,74.0935521 C200.011367,74.0935521 193.641394,69.9261871 190.560643,71.9809697 C187.479893,74.0357523 182.453405,76.9517517 187.401716,79.0643341 C192.350027,81.1769164 199.206434,80.7723179 199.206434,80.7723179 L200.011367,74.0935521 Z" id="Path" fill="#FEC2BE" fill-rule="nonzero"></path>
                <path d="M204.441394,114.307757 C205.391099,116.330749 206.17866,126.558422 206.70563,129.798101 C207.467131,128.497605 208.387882,126.939901 208.697694,126.454383 C209.091475,125.833035 210.04118,123.203144 210.571046,121.68879 C209.965898,120.220675 208.295228,116.01285 208.295228,114.463816 C208.295228,112.579543 205.243432,110.215531 205.243432,110.215531 C205.243432,110.215531 203.315067,111.903285 204.441394,114.307757 Z" id="Path" fill="#000000" fill-rule="nonzero" opacity="0.1"></path>
                <path d="M224.920858,145.693043 C224.920858,145.693043 217.853083,142.684564 215.765469,144.826046 C213.677855,146.967529 224.920858,145.693043 224.920858,145.693043 Z" id="Path" fill="#000000" fill-rule="nonzero" opacity="0.1"></path>
                <path d="M220.945416,146.895279 C220.945416,146.895279 228.094263,150.903694 225.644718,151.582842 C223.195174,152.261989 220.945416,146.895279 220.945416,146.895279 Z" id="Path" fill="#000000" fill-rule="nonzero" opacity="0.1"></path>
                <path d="M199.582842,143.407061 C199.582842,143.407061 202.634638,143.606471 201.467775,144.207588 C200.300912,144.808706 199.582842,143.407061 199.582842,143.407061 Z" id="Path" fill="#000000" fill-rule="nonzero" opacity="0.1"></path>
                <path d="M195.766649,144.328968 C195.807185,144.528377 204.64118,147.375017 202.915496,148.663952 C201.189812,149.952888 195.766649,144.328968 195.766649,144.328968 Z" id="Path" fill="#000000" fill-rule="nonzero" opacity="0.1"></path>
                <path d="M223.875603,168.859199 C222.552386,168.65979 215.163217,165.252492 218.052869,167.703204 C220.94252,170.153915 223.875603,168.859199 223.875603,168.859199 Z" id="Path" fill="#000000" fill-rule="nonzero" opacity="0.1"></path>
                <path d="M220.221555,171.544 C220.221555,171.544 219.578767,174.029391 217.129223,173.708602 C214.679678,173.387813 220.221555,171.544 220.221555,171.544 Z" id="Path" fill="#000000" fill-rule="nonzero" opacity="0.1"></path>
                <path d="M222.271528,176.598591 C221.828525,176.477212 216.567507,174.07274 216.448794,175.194056 C216.33008,176.315372 221.466595,178.280565 221.869062,177.679447 C222.099572,177.362597 222.23876,176.988796 222.271528,176.598591 L222.271528,176.598591 Z" id="Path" fill="#000000" fill-rule="nonzero" opacity="0.1"></path>
                <path d="M205.243432,173.708602 C204.600643,173.668142 198.583914,171.746299 197.373619,173.468733 L205.243432,173.708602 Z" id="Path" fill="#000000" fill-rule="nonzero" opacity="0.1"></path>
                <path d="M199.782627,174.829918 C199.782627,174.829918 198.737373,173.908011 197.695013,174.390639 C196.652654,174.873268 199.782627,174.829918 199.782627,174.829918 Z" id="Path" fill="#000000" fill-rule="nonzero" opacity="0.1"></path>
                <path d="M213.113244,184.771482 C212.977692,185.46746 212.442514,186.017508 211.749491,186.173127 L213.113244,184.771482 Z" id="Path" fill="#000000" fill-rule="nonzero" opacity="0.1"></path>
                <path d="M182.473673,188.540028 C182.876139,190.181542 188.499088,190.343382 191.188954,189.901213 C193.87882,189.459045 199.461233,187.869551 199.461233,187.869551 C199.461233,187.869551 205.324504,187.308893 207.050188,186.586395 C208.775871,185.863898 207.412118,184.020085 207.412118,184.020085 C207.412118,184.020085 207.412118,183.959395 207.412118,183.849575 C207.452654,183.179098 207.574263,180.748616 207.160214,180.092589 C206.676676,179.332521 206.957534,176.84713 206.957534,176.84713 C206.957534,176.84713 198.647614,178.451075 198.485469,177.688117 C198.323324,176.92516 197.037748,175.844304 196.438391,175.604435 C195.839035,175.364566 195.393137,177.607198 195.393137,177.607198 C195.393137,177.607198 191.629062,180.815086 191.377158,181.976862 C191.125255,183.138638 188.481716,183.739756 188.481716,183.739756 C188.481716,183.739756 184.465737,184.863961 183.420483,185.424619 C182.803963,185.713796 182.383491,186.30332 182.311528,186.979434 C182.272188,187.505117 182.327096,188.033589 182.473673,188.540028 Z" id="Path" fill="#CA8496" fill-rule="nonzero"></path>
                <path d="M182.473673,188.540028 C182.876139,190.181542 188.499088,190.343382 191.188954,189.901213 C193.87882,189.459045 199.461233,187.869551 199.461233,187.869551 C199.461233,187.869551 205.324504,187.308893 207.050188,186.586395 C208.775871,185.863898 207.412118,184.020085 207.412118,184.020085 C207.412118,184.020085 207.412118,183.959395 207.412118,183.849575 L199.015335,185.704948 C199.015335,185.704948 194.880643,187.467842 192.231314,187.467842 C189.91496,187.467842 184.732118,188.415759 182.326005,186.979434 C182.281964,187.504257 182.331968,188.032714 182.473673,188.540028 Z" id="Path" fill="#000000" fill-rule="nonzero" opacity="0.1"></path>
                <path d="M193.849866,182.205171 C193.849866,182.205171 194.252332,184.852402 195.859303,185.733848 L193.849866,182.205171 Z" id="Path" fill="#000000" fill-rule="nonzero" opacity="0.1"></path>
                <path d="M204.38059,24.7845504 C204.531998,24.8655174 204.691056,24.931344 204.855442,24.9810697 C205.611153,25.1833689 206.346595,24.6776208 207.015442,24.2730222 C207.68429,23.8684237 208.607936,23.5678648 209.187024,24.0909529 C209.942735,24.7758804 209.395496,26.2411051 210.17437,26.9000227 C210.666595,27.3190712 211.448365,27.1890217 211.995603,27.5213705 C212.542842,27.8537193 212.707882,28.6166765 212.846863,29.2698142 C212.985845,29.9229518 213.260912,30.6627891 213.900804,30.8535284 C214.540697,31.0442677 215.131367,30.6252192 215.759678,30.6483392 C215.889973,30.6483392 216.049223,30.6685691 216.130295,30.5731994 C216.18801,30.4886635 216.20987,30.3847682 216.191099,30.2842005 C216.112754,29.5074938 216.182508,28.7230039 216.396676,27.9722088 C216.65437,27.2352615 217.265308,26.5647839 218.02681,26.4462944 C219.156032,26.272895 220.102842,27.2612714 220.765898,28.1802881 C221.462925,29.1565368 222.097331,30.1758519 222.665308,31.2321171 C222.700749,31.3007645 222.73264,31.37118 222.760858,31.4430863 C223.313488,30.2002284 223.597619,28.8551173 223.594745,27.4953606 C223.5963,22.6212585 220.001813,18.4900398 215.166478,17.8085786 C210.331143,17.1271174 205.731178,20.1034624 204.38059,24.7874404 L204.38059,24.7845504 Z" id="Path" fill="#000000" fill-rule="nonzero" opacity="0.1"></path>
                <path d="M220.77748,28.0184487 C220.114424,27.090762 219.167614,26.1052756 218.038391,26.2844549 C217.265308,26.4029445 216.665952,27.0705321 216.408257,27.8074794 C216.19402,28.5582683 216.12523,29.3429547 216.205576,30.1194711 C216.221419,30.2207668 216.19757,30.3242614 216.138981,30.40847 C216.052118,30.5038397 215.901555,30.4893897 215.77126,30.4836098 C215.142949,30.4604898 214.517534,30.8679784 213.912386,30.688799 C213.307239,30.5096197 212.997426,29.7582224 212.858445,29.1050847 C212.719464,28.4519471 212.568901,27.7121098 212.007185,27.371091 C211.445469,27.0300722 210.678177,27.1687917 210.185952,26.7497433 C209.407078,26.0879357 209.954316,24.622711 209.198606,23.9406734 C208.619517,23.4146953 207.695871,23.7152542 207.027024,24.1198528 C206.358177,24.5244513 205.622735,25.0301995 204.867024,24.8307902 C204.612225,24.7614305 204.383485,24.614041 204.134477,24.5186713 C202.94445,24.067833 201.40118,24.8336802 200.42252,24.0187031 C200.066771,23.6645666 199.811066,23.2229112 199.681287,22.7384378 C199.41302,22.0846073 199.231014,21.3987541 199.139839,20.6981051 C199.053029,19.9888309 199.24848,19.2738728 199.684182,18.7069023 C200.32118,17.9555051 201.398284,17.7705457 202.211903,17.2156677 C202.903914,16.7445994 203.37008,16.0221021 203.82756,15.3140546 C204.28504,14.6060072 204.728043,13.8690598 205.393995,13.3690917 C206.059946,12.8691235 207.003861,12.6234743 207.750885,13.002063 C207.987183,13.1643231 208.24826,13.2872961 208.523968,13.3662017 C208.829937,13.372319 209.131295,13.2911057 209.392601,13.1321125 C212.178016,11.8229472 215.420912,12.0541464 218.475603,12.444295 C219.69748,12.6003544 220.936729,12.7853138 222.051475,13.3112919 C223.16622,13.83727 224.15067,14.7562866 224.463378,15.9498523 C224.712386,16.8919889 224.521287,17.9150452 224.822413,18.8398419 C225.025094,19.4698596 225.442038,19.9958377 225.691046,20.6287454 C226.34252,22.3164993 225.563646,24.1718726 225.233566,25.9521061 C224.871635,27.8970691 225.054048,29.9980915 224.225952,31.8447948 C224.063807,32.2060435 223.881394,32.8389512 223.473137,32.5990821 C223.183592,32.4227927 222.876676,31.3968465 222.702949,31.0789476 C222.127537,30.0186287 221.484386,28.9963518 220.77748,28.0184487 L220.77748,28.0184487 Z" id="Path" fill="#9A5E7F" fill-rule="nonzero"></path>
                <path d="M238.399142,59.3430454 L239.846863,63.4583905 C239.846863,63.4583905 236.41866,76.1743445 234.811689,78.8504748 C233.204718,81.5266052 230.850724,84.9425728 230.850724,84.9425728 C230.850724,84.9425728 226.889759,86.9193257 222.28311,86.011869 C217.676461,85.1044122 204.238713,82.6970509 204.238713,82.6970509 C204.238713,82.6970509 203.115282,82.9109102 202.527507,82.0554733 C201.939732,81.2000364 198.88504,80.7723179 198.88504,80.7723179 C198.88504,80.7723179 195.352601,75.6425864 199.689973,73.5039942 C199.689973,73.5039942 200.222735,74.6802199 202.527507,73.8796928 C204.832279,73.0791657 205.52429,74.5212705 205.52429,74.5212705 C205.52429,74.5212705 209.273887,75.2697778 211.361501,75.0010088 C213.449115,74.7322397 218.643539,74.6282001 219.179196,74.2004817 C219.460515,73.9510182 219.890639,73.9742244 220.143378,74.2525015 C220.143378,74.2525015 221.426059,73.7727632 221.854584,73.2930249 C222.28311,72.8132867 222.87378,73.824783 222.87378,73.824783 C222.87378,73.824783 223.6237,73.3999546 223.409437,72.8653065 C223.195174,72.3306584 224.104343,70.2989958 224.104343,70.2989958 C224.104343,70.2989958 224.532869,68.9638206 224.263592,67.8945245 C223.994316,66.8252283 225.604182,62.9815422 225.604182,62.9815422 C225.625124,62.3330474 225.552972,61.6848988 225.38992,61.0568092 C225.120643,60.0944427 227.416729,58.1668196 227.416729,58.1668196 C227.416729,58.1668196 229.666488,47.2657791 234.432386,50.8464761 C239.198284,54.4271732 238.399142,59.3430454 238.399142,59.3430454 Z" id="Path" fill="#8DADD6"></path>
                <path d="M238.729223,59.3430454 L240.176944,63.4583905 C240.176944,63.4583905 236.74874,76.1743445 235.141769,78.8504748 C233.534799,81.5266052 231.180804,84.9425728 231.180804,84.9425728 C231.180804,84.9425728 227.216944,86.9193257 222.61319,86.011869 C218.009437,85.1044122 204.563003,82.6970509 204.563003,82.6970509 C204.563003,82.6970509 203.439571,82.9109102 202.851796,82.0554733 C202.264021,81.2000364 199.20933,80.7723179 199.20933,80.7723179 C199.20933,80.7723179 195.67689,75.6425864 200.014263,73.5039942 C200.014263,73.5039942 200.547024,74.6802199 202.851796,73.8796928 C205.156568,73.0791657 205.848579,74.5212705 205.848579,74.5212705 C205.848579,74.5212705 209.612654,75.2697778 211.685791,75.0010088 C213.758928,74.7322397 218.967828,74.6282001 219.503485,74.2004817 C219.783839,73.9513446 220.213048,73.9745711 220.464772,74.2525015 C220.464772,74.2525015 221.750349,73.7727632 222.178874,73.2930249 C222.607399,72.8132867 223.19807,73.824783 223.19807,73.824783 C223.19807,73.824783 223.945094,73.3999546 223.730831,72.8653065 C223.516568,72.3306584 224.428633,70.2989958 224.428633,70.2989958 C224.428633,70.2989958 224.857158,68.9638206 224.587882,67.8945245 C224.318606,66.8252283 225.928472,62.9815422 225.928472,62.9815422 C225.949414,62.3330474 225.877261,61.6848988 225.714209,61.0568092 C225.444933,60.0944427 227.741019,58.1668196 227.741019,58.1668196 C227.741019,58.1668196 229.990777,47.2657791 234.756676,50.8464761 C239.522574,54.4271732 238.729223,59.3430454 238.729223,59.3430454 Z" id="Path" fill="#8DADD6"></path>
                <path d="M203.917319,76.5529332 C203.972332,76.9257418 205.150777,78.4227564 204.722252,78.6886354 C204.293727,78.9545145 203.595925,78.795565 204.238713,79.651002 C204.881501,80.5064389 204.817802,81.7895942 204.400858,81.6277548 C203.983914,81.4659154 203.277426,79.5440723 203.277426,78.795565 C203.277426,78.0470578 203.917319,76.5529332 203.917319,76.5529332 Z" id="Path" fill="#8DADD6"></path>
                <path d="M219.821984,75.6974963 C219.821984,75.6974963 220.143378,79.4371427 222.766649,80.5064389 C225.38992,81.575735 219.821984,75.6974963 219.821984,75.6974963 Z" id="Path" fill="#8DADD6"></path>
                <path d="M225.282788,74.4143409 C225.442038,74.4663607 229.029491,76.3910937 227.42252,77.5124097 C225.81555,78.6337256 225.282788,74.4143409 225.282788,74.4143409 Z" id="Path" fill="#8DADD6"></path>
                <path d="M225.497051,71.7411006 C225.497051,71.7411006 230.743592,72.8103967 228.971582,73.7178534 C227.199571,74.6253101 225.497051,71.7411006 225.497051,71.7411006 Z" id="Path" fill="#8DADD6"></path>
                <g id="Group" opacity="0.1" transform="translate(198.916890, 19.651929)" fill="#000000" fill-rule="nonzero">
                    <path d="M17.4797855,7.2452038 C17.7374799,6.50825646 18.3484182,5.84066888 19.1099196,5.72217931 C20.2391421,5.54877993 21.1859517,6.53426637 21.849008,7.45617304 C22.5466538,8.43100715 23.1810868,9.44940094 23.7484182,10.505112 C23.9221448,10.8259008 24.2174799,11.8518471 24.5186059,12.0281365 C24.9268633,12.2680056 25.0976944,11.6322079 25.2714209,11.2709592 C26.0995174,9.43292589 25.9171046,7.32612351 26.2790349,5.38116054 C26.4904021,4.24539465 26.8812869,3.0691689 26.9681501,1.94496297 C27.0897587,3.34082792 26.5425201,4.8118326 26.2790349,6.23659745 C25.9171046,8.18156041 26.0995174,10.2825828 25.2714209,12.1263961 C25.1092761,12.4876448 24.9268633,13.1205526 24.5186059,12.8835734 C24.2290617,12.707284 23.9221448,11.6813378 23.7484182,11.3605489 C23.1847233,10.3061377 22.5541649,9.28871913 21.8605898,8.31449993 C21.1975335,7.3839233 20.2507239,6.40132685 19.1215013,6.5805062 C18.3484182,6.69899577 17.7490617,7.36658336 17.4913673,8.10353069 C17.3621967,8.49185641 17.2900274,8.89680089 17.2771046,9.30576635 C17.2140544,8.61230128 17.2828204,7.91318949 17.4797855,7.2452038 L17.4797855,7.2452038 Z" id="Path"></path>
                    <path d="M0.752815013,2.17038215 C0.883356653,2.65454025 1.13895338,3.09600944 1.49404826,3.45064752 C2.47270777,4.26562457 4.01597855,3.49688735 5.20600536,3.95061571 C5.44437328,4.06690888 5.68891881,4.1701385 5.93855228,4.25984459 C6.69426273,4.46214386 7.42970509,3.97084564 8.09855228,3.55179716 C8.76739946,3.13274867 9.69104558,2.84663971 10.270134,3.36972781 C11.0258445,4.05465534 10.4786059,5.51988004 11.2574799,6.17879766 C11.7497051,6.60073613 12.5314745,6.46779661 13.0787131,6.80014541 C13.6259517,7.13249421 13.790992,7.89545145 13.9299732,8.53413914 C14.0689544,9.17282683 14.3440214,9.9271141 14.9839142,10.1178534 C15.623807,10.3085927 16.2144772,9.88954424 16.8427882,9.91266415 C16.9730831,9.91266415 17.1323324,9.93289408 17.2105094,9.83752442 C17.2313637,9.81511981 17.2471613,9.78851155 17.2568365,9.75949471 C17.2568365,9.97335393 17.2568365,10.1872132 17.2771046,10.4010724 C17.2923503,10.502346 17.268552,10.6056223 17.2105094,10.6900713 C17.1236461,10.785441 16.9730831,10.770991 16.8427882,10.7652111 C16.2144772,10.7420912 15.5890617,11.1495797 14.9839142,10.9704003 C14.3787668,10.791221 14.0689544,10.0369337 13.9299732,9.38668605 C13.790992,8.73643841 13.640429,7.99371109 13.0787131,7.63824238 C12.5169973,7.28277366 11.7497051,7.43594311 11.2574799,7.01689462 C10.4786059,6.35797701 11.0258445,4.89275231 10.270134,4.20782478 C9.69104558,3.68473667 8.76739946,3.98529559 8.09855228,4.38989412 C7.42970509,4.79449266 6.69426273,5.30024083 5.93855228,5.09794156 C5.68375335,5.02858181 5.4550134,4.88408234 5.20600536,4.78871268 C4.01597855,4.33498432 2.47270777,5.10372154 1.49404826,4.28874449 C1.1382996,3.93346587 0.882637155,3.49088638 0.752815013,3.00558913 C0.483858699,2.3519899 0.301828009,1.66604528 0.211367292,0.965256509 C0.191089563,0.726429139 0.196914747,0.486108291 0.228739946,0.248539101 C0.328883535,0.907121061 0.504735336,1.55198967 0.752815013,2.17038215 L0.752815013,2.17038215 Z" id="Path"></path>
                </g>
                <ellipse id="Oval" fill="#E8EEF6" cx="135.486434" cy="27.0763121" rx="4.42134048" ry="4.41301404"></ellipse>
                <ellipse id="Oval" fill="#E8EEF6" cx="151.304236" cy="7.39837324" rx="7.41233244" ry="7.39837324"></ellipse>
                <ellipse id="Oval" fill="#E8EEF6" cx="141.494477" cy="43.2978234" rx="7.41233244" ry="7.39837324"></ellipse>
                <ellipse id="Oval" fill="#E8EEF6" cx="278.955603" cy="73.6051438" rx="4.42134048" ry="4.41301404"></ellipse>
                <ellipse id="Oval" fill="#E8EEF6" cx="263.134906" cy="53.927205" rx="7.41233244" ry="7.39837324"></ellipse>
                <ellipse id="Oval" fill="#E8EEF6" cx="272.94756" cy="89.8266552" rx="7.41233244" ry="7.39837324"></ellipse>
                <ellipse id="Oval" fill="#E8EEF6" cx="29.0326005" cy="81.5988549" rx="2.50455764" ry="2.49984096"></ellipse>
                <ellipse id="Oval" fill="#E8EEF6" cx="39.7689008" cy="72.1370291" rx="4.19839142" ry="4.19048485"></ellipse>
                <ellipse id="Oval" fill="#E8EEF6" cx="123.079464" cy="87.659163" rx="6.05726542" ry="6.04585814"></ellipse>
                <ellipse id="Oval" fill="#E8EEF6" cx="167.669276" cy="116.559058" rx="6.05726542" ry="6.04585814"></ellipse>
            </g>
        </g>
    </g>
</svg>