<?xml version="1.0" encoding="UTF-8"?>
<svg width="264px" height="228px" viewBox="0 0 264 228" version="1.1" xmlns="http://www.w3.org/2000/svg" xmlns:xlink="http://www.w3.org/1999/xlink">
    <!-- Generator: Sketch 54.1 (76490) - https://sketchapp.com -->
    <title>tree</title>
    <desc>Created with Sketch.</desc>
    <g id="Page-1" stroke="none" stroke-width="1" fill="none" fill-rule="evenodd">
        <g id="onboarding-1" transform="translate(-48.000000, -196.000000)">
            <g id="tree" transform="translate(48.000000, 196.000000)">
                <path d="M184,122 C184.633373,122.444134 185.00079,123.111196 184.999999,123.815542 L185,197" id="Path" stroke="#3F3D56" stroke-width="2"></path>
                <path d="M105.901909,227 C105.901909,227 121.787192,180.890627 113.029909,152.515631 C104.272625,124.140635 97.3482789,125.249031 97.3482789,125.249031 C97.3482789,125.249031 85.5361419,121.923833 70.8727977,131.67774 C56.2094535,141.431647 52.3399732,144.313483 43.990014,140.323247 C35.6400547,136.333012 34.0107953,130.125981 13.64504,130.791012 C13.64504,130.791012 24.4388915,124.3623 35.029084,130.125971 C45.6192765,135.889643 52.7472911,138.99316 63.541155,130.125971 C74.3350188,121.258783 89.2020065,109.731443 103.661692,116.603514 C103.661692,116.603514 93.0714992,105.297848 89.6093213,105.297848 C86.1471435,105.297848 69.8545337,103.524412 64.5594437,97.539059 C64.5594437,97.539059 57.0241141,91.7753873 43.5827145,105.962889 C30.141315,120.15039 33.39984,120.150386 21.384044,119.041987 C9.36824792,117.933588 0,111.504879 0,111.504879 C0,111.504879 14.0523734,117.71191 22.6059885,114.608396 C31.1596036,111.504882 38.4912773,99.7558578 46.0266068,95.7656226 C53.5619363,91.7753873 58.0424028,86.4550781 68.2252774,92.2187363 C68.2252774,92.2187363 63.9484698,73.1542648 55.8021696,74.7060402 C47.6558693,76.2578155 29.7340032,74.9277214 17.7182071,65.8388548 C17.7182071,65.8388548 8.14630334,65.6171736 3.86949579,67.8339691 C3.86949579,67.8339691 15.070659,60.7402201 24.6425628,65.8388548 C34.2144666,70.9374895 59.6716623,70.2724458 59.6716623,70.2724458 C59.6716623,70.2724458 57.4314414,37.9072147 53.1546214,35.6904193 C48.8778015,33.4736238 51.5253589,27.7099487 43.5827145,26.6015527 C43.5827145,26.6015527 53.3582773,25.271472 55.1911957,32.5869022 C57.0241141,39.9023324 69.6508809,79.3613124 69.6508809,79.3613124 C69.6508809,79.3613124 77.3898694,96.2089682 85.9434845,92.2187363 C94.4970996,88.2285044 82.6849533,65.8388548 82.6849533,65.8388548 L68.021606,58.5234482 C68.021606,58.5234482 79.0191103,58.0800891 85.7398132,64.9521568 C92.4605161,71.8242245 92.8678248,93.9921963 92.8678248,93.9921963 C92.8678248,93.9921963 109.771402,96.6523509 113.844554,106.627936 C113.844554,106.627936 116.492102,97.7607503 111.400662,92.4404377 C110.127802,91.1103604 108.7913,88.7965779 107.502529,86.0740678 C102.618336,75.6327078 100.852759,63.7913687 102.452488,52.2045629 C103.211207,46.5329515 103.678159,40.9874099 102.847047,39.6806612 C101.014128,36.7988254 93.2751396,19.0644514 92.6641689,14.4091791 C92.0531981,9.75390691 93.2751396,0 93.2751396,0 C93.2751396,0 93.4787986,11.970699 95.9226877,15.7392564 C98.3665769,19.5078138 105.290936,38.1289162 105.290936,38.1289162 C105.290936,38.1289162 108.956772,29.9267711 113.23358,27.9316535 C117.510388,25.9365359 124.027428,13.7441523 121.583539,7.75880273 C121.583539,7.75880273 124.638402,17.0693472 122.194513,22.3896597 C119.750624,27.7099723 112.826265,33.917003 112.826265,33.917003 C112.826265,33.917003 105.290936,61.6269619 110.993347,73.1543052 C116.695758,84.6816485 127.693265,97.5390691 127.082294,105.962899 L127.082294,110.839852 C127.082294,110.839852 139.301746,98.2041094 138.487117,93.9921963 C137.672487,89.7802832 136.654198,79.804695 128.91521,73.8193455 C121.176221,67.833996 116.084787,58.3017602 121.583539,44.5576281 C127.082291,30.8134961 127.082291,28.3750126 127.082291,28.3750126 L123.416458,45.4443598 C123.416458,45.4443598 121.379883,60.7402571 127.082294,66.0605697 C132.784706,71.3808822 140.32002,81.1347891 140.32002,81.1347891 L138.69076,49.2129138 C138.69076,49.2129138 138.283445,23.0547135 161.704064,11.7490514 L176.571076,4.87695345 L161.296767,15.2959108 C161.296767,15.2959108 142.967586,33.0302848 144.189534,43.8925878 C145.411482,54.7548908 143.985875,61.8486364 143.985875,61.8486364 C143.985875,61.8486364 155.390697,45.8876987 168.832097,40.5673862 C182.273496,35.2470736 190.623453,16.6259881 190.623453,16.6259881 L202.028275,6.87208453 L192.660021,19.0644648 C192.660021,19.0644648 189.808817,33.4736439 173.719872,43.6709099 C157.630927,53.8681759 147.244391,68.942392 146.633417,78.2529398 C146.022443,87.5634877 145.411472,95.7656327 145.411472,95.7656327 C145.411472,95.7656327 175.552787,94.6572332 182.273487,80.2480474 C188.994187,65.8388615 189.605158,37.2421778 196.122202,32.5869156 C202.639245,27.9316535 214.858679,22.1679718 214.858679,22.1679718 L201.213623,34.360352 C201.213623,34.360352 198.362416,44.3359402 198.973402,51.4296891 C199.584389,58.5234381 194.492936,65.1738279 194.492936,65.1738279 C194.492936,65.1738279 208.545316,59.8535221 216.284289,49.6562595 C224.023262,39.4589968 232.984207,30.148449 232.984207,30.148449 C232.984207,30.148449 222.190356,47.6611452 222.190356,48.3261822 C222.190356,48.9912191 215.673315,55.8632902 216.487944,60.0752067 C217.302574,64.2871232 204.064837,69.1640733 204.064837,69.1640733 L190.623437,77.5878861 L186.34663,88.2285112 C186.34663,88.2285112 203.861178,88.6718703 213.025767,99.9775323 C222.190356,111.283194 245,114.608393 245,114.608393 L232.169587,118.376977 C232.169587,118.376977 219.950132,113.943383 208.341653,105.741234 C196.733175,97.5390859 197.955117,90.223649 183.495432,98.4258074 C169.035746,106.627966 149.280953,113.500007 149.280953,113.500007 C149.280953,113.500007 160.685775,107.736335 181.255186,121.702155 C201.824597,135.667975 223.819615,126.357427 223.819615,126.357427 C223.819615,126.357427 218.931846,136.554693 208.545316,137.219734 C198.158785,137.884774 171.07233,119.263685 161.907738,124.583991 C152.743146,129.904297 148.466342,123.253914 144.800505,136.55469 C141.134668,149.855466 134.413971,186.210936 142.152957,206.605468 L149.89193,226.99998 L105.901909,227 Z" id="Path" fill="#497CBD" fill-rule="nonzero"></path>
                <path d="M183.402918,79.5949874 C177.940839,91.4052716 157.014414,94.358561 149.356353,95.050943 C149.141608,98.0827034 149,100 149,100 C149,100 179.1523,98.88175 185.87543,84.3448392 C192.59856,69.8079283 193.209784,40.9576888 199.729218,36.2611575 C200.420617,35.7630749 201.176682,35.252361 201.975002,34.7373824 C202.198954,33.8347314 202.349979,33.3004753 202.349979,33.3004753 L216,21 C216,21 203.776133,26.8147609 197.256696,31.5113092 C190.737259,36.2078574 190.126081,65.0580766 183.402918,79.5949874 Z" id="Path" fill="#000000" fill-rule="nonzero" opacity="0.1"></path>
                <path d="M200.784125,62.086722 C199.937186,64.9494633 198.65703,67.6264981 197,70 C197,70 209.229351,65.2186818 217.149433,56.0292438 C218.688535,52.2341288 222.212048,48.2620582 222.212048,47.7571547 C222.212048,47.0709023 233,29 233,29 C233,29 224.04395,38.6073212 216.30917,49.1296177 C211.925567,55.0930729 205.515938,59.4393516 200.784125,62.086722 Z" id="Path" fill="#000000" fill-rule="nonzero" opacity="0.1"></path>
                <path d="M127.407186,66.2093548 C127.266367,66.0781788 127.131519,65.9392447 127,65.7963271 C127.613462,67.8395975 128.531158,69.6593742 129.884007,70.9194443 C135.598426,76.24199 143.14955,86 143.14955,86 L141.516842,54.0646954 C141.516842,54.0646954 141.247639,36.6628932 153.875057,24.1069555 C156.32736,21.0534316 158.937752,18.1541975 161.693545,15.4233438 L177,5 L162.101737,11.8749643 C138.631878,23.1853929 139.040058,49.354606 139.040058,49.354606 L140.672766,81.2899106 C140.672766,81.2899106 133.121605,71.5319006 127.407186,66.2093548 Z" id="Path" fill="#000000" fill-rule="nonzero" opacity="0.1"></path>
                <path d="M147.688116,58.3957515 C147.644108,63.7910754 147,67 147,67 C147,67 158.282959,51.2289215 171.582683,45.9662827 C172.368706,45.4256692 173.166156,44.8933966 173.982339,44.3767052 C189.906054,34.2964026 192.727989,20.0525168 192.727989,20.0525168 L202,8 L190.712298,17.6420128 C190.712298,17.6420128 182.448096,36.0495019 169.144789,41.3087698 C160.076657,44.8937224 151.946533,53.3646608 147.688116,58.3957515 Z" id="Path" fill="#000000" fill-rule="nonzero" opacity="0.1"></path>
                <path d="M130.103923,110.313524 L130.103923,115 C130.103923,115 141.73854,102.857769 140.96287,98.8103494 C140.369724,95.7150313 139.659519,89.3815944 136.064023,84 C137.684703,88.0669573 138.177985,92.0340294 138.609539,94.2861219 C139.165769,97.1884979 133.340615,104.252995 130,108.018122 C130.117197,108.776043 130.152083,109.546568 130.103923,110.313524 Z" id="Path" fill="#000000" fill-rule="nonzero" opacity="0.1"></path>
                <path d="M113,78 C113.091324,78.215078 113.185496,78.4267178 113.285289,78.6314007 C116.232442,84.67489 120.67562,91.0990418 124,97 C121.313224,91.1562037 116.637458,84.4737258 113,78 Z" id="Path" fill="#000000" fill-rule="nonzero" opacity="0.1"></path>
                <path d="M181.222008,121.987248 C174.488911,117.581824 168.733869,115.204465 164.032654,114 C159.101135,115.947045 155.042306,117.398777 153,118.111608 C156.662746,117.117067 167.274366,115.795933 183.706036,126.547073 C196.598295,134.982363 210.046977,134.64986 218.344533,133.204858 C220.639309,131.388738 222.562573,129.107208 224,126.495886 C224,126.495886 201.894634,135.513198 181.222008,121.987248 Z" id="Path" fill="#000000" fill-rule="nonzero" opacity="0.1"></path>
                <path d="M122.63393,68 C121.0687,63.6496431 120.810802,58.4730994 122.609019,52.4071737 C122.58651,50.2088412 122.698337,48.0113819 122.943697,45.8305895 L126,31 C125.436501,33.1387093 124.147217,37.2646331 121.19677,44.9498585 C117.461662,54.6790738 118.855652,62.2816111 122.63393,68 Z" id="Path" fill="#000000" fill-rule="nonzero" opacity="0.1"></path>
                <path d="M213.129209,99.215115 C206.794087,91.4496207 196.457741,88.858952 190.715701,88 L189,92.2415678 C189,92.2415678 206.457894,92.6807014 215.592835,103.878173 C220.658552,110.087685 229.905632,113.865542 237.139844,116 L245,113.705998 C245,113.705998 222.264153,110.41261 213.129209,99.215115 Z" id="Path" fill="#000000" fill-rule="nonzero" opacity="0.1"></path>
                <path d="M87.9814077,96.392054 C96.2878477,92.4242155 84.8170758,70.1603038 84.8170758,70.1603038 L84.5032793,70 C87.3630073,76.7250465 91.5104774,88.8780987 85.5812045,91.7103974 C80.0330059,94.3606759 74.8384953,87.7670339 72,83.0954496 C72.1030617,83.425842 72.1596465,83.6068522 72.1596465,83.6068522 C72.1596465,83.6068522 79.6749676,100.359893 87.9814077,96.392054 Z" id="Path" fill="#000000" fill-rule="nonzero" opacity="0.1"></path>
                <path d="M116.310831,110 C116.310831,110 118.902726,101.80312 114.033571,96.742225 C115.227592,101.102111 113.825319,105.537329 113.825319,105.537329 C110.656723,98.2227829 99.7689926,95.0583128 95,94 C95.1849625,96.4352506 95.2162396,98.0229732 95.2162396,98.0229732 C95.2162396,98.0229732 112.214794,100.544452 116.310831,110 Z" id="Path" fill="#000000" fill-rule="nonzero" opacity="0.1"></path>
                <path d="M126,30 C126.999751,28.4360172 127,28 127,28 L126,30 Z" id="Path" fill="#000000" fill-rule="nonzero" opacity="0.1"></path>
                <path d="M25.0610199,118 C25.1022683,117.985846 25.1441589,117.972906 25.1851311,117.958349 C33.7754235,114.905757 41.1385415,103.34957 48.7061885,99.424843 C56.2738355,95.5001162 60.7734751,90.2671097 71,95.936172 C71,95.936172 69.2108996,88.1291336 65.7439088,83 C66.8922483,85.6776527 67.8203552,88.4565326 68.5177758,91.3053392 C58.2912508,85.6362769 53.791574,90.8692602 46.2239642,94.7940102 C38.6563545,98.7187601 31.2931993,110.274924 22.7029069,113.327516 C14.1126145,116.380108 0,110.274924 0,110.274924 C0,110.274924 9.40840866,116.598128 21.4757325,117.688322 C22.8561594,117.81303 24.0340214,117.923079 25.0610199,118 Z" id="Path" fill="#000000" fill-rule="nonzero" opacity="0.1"></path>
                <path d="M17.783638,65.0053727 C19.3555121,66.1687407 21.0054979,67.2057162 22.720075,68.1078019 C24.2516534,68.3848317 25.7384736,68.8951963 27.135459,69.6234229 C33.2645178,72.8408118 45.9361733,73.7181919 54.19631,73.9349038 C54.7226519,73.8670976 55.2234681,73.7902896 55.6887002,73.7029523 C56.6447038,73.5206964 57.6289928,73.6231146 58.5345203,73.9990683 C60.6805028,74.0059756 62,73.972211 62,73.972211 C62,73.972211 59.7703031,42.2260552 55.5135901,40.0516628 C55.4814592,40.0352522 55.4532705,40.0168097 55.4219268,40 C58.1333255,49.3308264 59.5399934,69.3541609 59.5399934,69.3541609 C59.5399934,69.3541609 34.2024204,70.0064737 24.6754524,65.0053727 C15.1484844,60.0042718 4,66.9623309 4,66.9623309 C8.2567069,64.7879351 17.783638,65.0053727 17.783638,65.0053727 Z" id="Path" fill="#000000" fill-rule="nonzero" opacity="0.1"></path>
                <path d="M109.883716,226 C113.543961,213.685432 122.346549,179.632374 115.416153,156.990814 C112.423224,147.212882 109.649075,140.977775 107.303896,137 C109.057702,140.765499 110.975166,145.746242 112.991772,152.334466 C121.581656,180.397521 106,226 106,226 L109.883716,226 Z" id="Path" fill="#000000" fill-rule="nonzero" opacity="0.1"></path>
                <path d="M30.5942015,133.155553 C33.0778747,133.432889 35.4953803,134.202696 37.729731,135.427721 C46.0493831,140.004215 52.2222066,142.906661 59.7384379,139.535717 C61.4506572,138.540608 63.3658354,137.309214 65.5744912,135.843203 C65.7466871,135.704962 65.9172295,135.572268 66.0912969,135.427731 C76.8281508,126.512727 91.6166946,114.923226 106,121.832354 C106,121.832354 103.09308,118.696631 99.834497,115.719068 C86.6511813,112.161087 73.4487317,122.543835 63.6327204,130.694238 C52.8958297,139.609245 45.8054674,136.48898 35.2711606,130.694238 C24.7368538,124.899496 14,131.362857 14,131.362857 C21.827257,131.1045 26.8709194,131.878098 30.5942015,133.155553 Z" id="Path" fill="#000000" fill-rule="nonzero" opacity="0.1"></path>
                <path d="M51,33 C51.2773747,33.3653674 51.6134432,33.7014359 52,34 C51.7160834,33.6381597 51.380605,33.3026813 51,33 L51,33 Z" id="Path" fill="#000000" fill-rule="nonzero" opacity="0.1"></path>
                <path d="M88.1201245,69.979053 C88.4338267,70.2983146 88.7277485,70.6393613 89,71 C88.1109525,68.6998795 87.0130563,66.7109496 85.6570309,65.3400565 C78.9595717,58.568858 68,59.0057057 68,59.0057057 L81.7444038,65.7854366 C84.0995521,66.7310241 86.264007,68.1546895 88.1201245,69.979053 L88.1201245,69.979053 Z" id="Path" fill="#000000" fill-rule="nonzero" opacity="0.1"></path>
                <path d="M103.245781,39.1836819 C104.068242,40.4740441 103.606143,45.9501464 102.855339,51.5507262 C101.272348,62.9924145 103.019486,74.6854396 107.85264,84.9960312 C108.494645,86.3757902 109.2117,87.7128115 110,89 C105.394149,78.8418382 103.754721,67.3978938 105.301145,56.1998662 C106.051949,50.5993129 106.514048,45.123194 105.691587,43.8328219 C103.877833,40.9870866 96.2196869,23.4748159 95.615102,18.8778493 C95.4338306,17.0944417 95.3915922,15.2975876 95.4888373,13.5064555 C93.9233716,8.68181055 93.7738687,0 93.7738687,0 C93.7738687,0 92.5646989,9.63175935 93.1692838,14.2286928 C93.7738687,18.8256262 101.432027,36.3379467 103.245781,39.1836819 Z" id="Path" fill="#000000" fill-rule="nonzero" opacity="0.1"></path>
                <path d="M108.035993,42 C108.035993,42 109.955936,37.6936932 112.620866,34.6288209 C112.832447,33.7736266 112.962785,33.291826 112.962785,33.291826 C112.962785,33.291826 119.699975,27.2321881 122.077818,22.0382273 C123.918453,18.0176856 122.553821,11.6661137 121.843048,9 C123.023511,15.14115 117.243134,25.6305907 113.359126,27.4486016 C109.990935,29.0251557 107.012989,34.5704873 106,36.6272989 C107.193596,39.7271392 108.035993,42 108.035993,42 Z" id="Path" fill="#000000" fill-rule="nonzero" opacity="0.1"></path>
                <path d="M122.18453,9 C122.103071,8.65648015 121.979364,8.32128432 121.81547,8 C121.81547,8 121.971708,8.37510448 122.18453,9 Z" id="Path" fill="#000000" fill-rule="nonzero" opacity="0.1"></path>
                <path d="M50.5071308,31.4823417 C52.3213396,31.7525052 54.408184,32.4296308 56,34 C55.8961609,33.572775 55.8055874,33.189787 55.7334633,32.867956 C53.880791,24.6043729 44,26.1068422 44,26.1068422 C48.4652671,26.8032316 49.6186273,29.126543 50.5071308,31.4823417 Z" id="Path" fill="#000000" fill-rule="nonzero" opacity="0.1"></path>
                <path d="M242.26659,215.707521 C239.285549,220.678084 240.102365,227 240.102365,227 C240.102365,227 245.75237,225.263042 248.73341,220.292482 C251.714451,215.321923 250.897635,209 250.897635,209 C250.897635,209 245.247621,210.736958 242.26659,215.707521 Z" id="Path" fill="#3F3D56" fill-rule="nonzero"></path>
                <path d="M243.988734,216.185687 C243.745029,222.260818 239.55873,227 239.55873,227 C239.55873,227 235.76756,221.889447 236.011265,215.814313 C236.254971,209.739179 240.44127,205 240.44127,205 C240.44127,205 244.232443,210.110553 243.988734,216.185687 Z" id="Path" fill="#F19D5C" fill-rule="nonzero"></path>
                <path d="M191,176.942805 C191,176.942805 194.385785,173.378186 195.771511,174.095321 C197.157238,174.812455 191.787138,178 191.787138,178 L191,176.942805 Z" id="Path" fill="#FFB9B9" fill-rule="nonzero"></path>
                <path d="M191,176.942805 C191,176.942805 194.385785,173.378186 195.771511,174.095321 C197.157238,174.812455 191.787138,178 191.787138,178 L191,176.942805 Z" id="Path" fill="#000000" fill-rule="nonzero" opacity="0.1"></path>
                <path d="M180.981998,170.159773 C180.981998,170.159773 179.726222,172.576458 180.054831,175.181655 C180.38344,177.786853 183.388669,186.146599 184.410335,185.998045 C185.432002,185.849491 193,179.861997 193,179.861997 L191.556605,177.698154 L186.027927,181.29465 C186.027927,181.29465 185.185717,168.431475 180.981998,170.159773 Z" id="Path" fill="#D0CDE1" fill-rule="nonzero"></path>
                <path d="M200.696997,175.704514 L191.822239,180.924375 C191.718101,180.998466 191.588672,181.019385 191.468751,180.981505 C191.34883,180.943625 191.250726,180.850836 191.200816,180.728085 L189.026763,175.862102 C188.941618,175.575415 189.065281,175.265181 189.317515,175.132692 L196.685794,171.065919 C196.873724,170.944904 197.116584,170.994619 197.249574,171.181329 L200.930106,174.894224 C201.003324,175.033968 201.019831,175.199746 200.975777,175.35288 C200.931722,175.506013 200.83096,175.633109 200.696997,175.704514 L200.696997,175.704514 Z" id="Path" fill="#2F2E41" fill-rule="nonzero"></path>
                <polygon id="Path" fill="#F19D5C" fill-rule="nonzero" points="201 174.562811 192.31203 180 190 175.437781 197.453048 171"></polygon>
                <circle id="Oval" fill="#F2F2F2" fill-rule="nonzero" transform="translate(193.533877, 173.176647) rotate(-50.158480) translate(-193.533877, -173.176647) " cx="193.533877" cy="173.176647" r="1"></circle>
                <circle id="Oval" fill="#F2F2F2" fill-rule="nonzero" transform="translate(196.597599, 177.587357) rotate(-50.158480) translate(-196.597599, -177.587357) " cx="196.597599" cy="177.587357" r="1"></circle>
                <path d="M180.981998,170.159773 C180.981998,170.159773 179.726222,172.576458 180.054831,175.181655 C180.38344,177.786853 183.388669,186.146599 184.410335,185.998045 C185.432002,185.849491 193,179.861997 193,179.861997 L191.556605,177.698154 L186.027927,181.29465 C186.027927,181.29465 185.185717,168.431475 180.981998,170.159773 Z" id="Path" fill="#000000" fill-rule="nonzero" opacity="0.1"></path>
                <path d="M188,178.010253 C188,178.010253 192.342581,175.370923 193.790108,176.140728 C195.237635,176.910533 188.723777,179 188.723777,179 L188,178.010253 Z" id="Path" fill="#FFB9B9" fill-rule="nonzero"></path>
                <ellipse id="Oval" fill="#FFB9B9" fill-rule="nonzero" cx="183.5" cy="161" rx="3.5" ry="4"></ellipse>
                <path d="M197.073046,190 C197.073046,190 201.127699,190.571396 200.996902,193.285482 C200.866105,195.999569 197.857819,207.2845 197.857819,207.2845 L197.596228,211.712762 C197.596228,211.712762 197.857819,219.140812 197.07304,218.997966 C196.288261,218.85512 194.457136,213.712623 194.457136,213.712623 C194.457136,213.712623 192.233618,212.141303 193.279978,210.712832 C194.326339,209.284361 195.111112,209.427207 194.849521,207.85589 C194.58793,206.284573 194.718727,199.713605 195.503497,197.713744 C196.288267,195.713884 196.74555,194.610868 196.74555,194.610868 L194.195545,194.428262 L197.073046,190 Z" id="Path" fill="#FFB9B9" fill-rule="nonzero"></path>
                <path d="M197.073046,190 C197.073046,190 201.127699,190.571396 200.996902,193.285482 C200.866105,195.999569 197.857819,207.2845 197.857819,207.2845 L197.596228,211.712762 C197.596228,211.712762 197.857819,219.140812 197.07304,218.997966 C196.288261,218.85512 194.457136,213.712623 194.457136,213.712623 C194.457136,213.712623 192.233618,212.141303 193.279978,210.712832 C194.326339,209.284361 195.111112,209.427207 194.849521,207.85589 C194.58793,206.284573 194.718727,199.713605 195.503497,197.713744 C196.288267,195.713884 196.74555,194.610868 196.74555,194.610868 L194.195545,194.428262 L197.073046,190 Z" id="Path" fill="#000000" fill-rule="nonzero" opacity="0.1"></path>
                <path d="M196.805424,191 C196.805424,191 200.813193,191.973177 201.213969,194.753681 C201.614746,197.534185 203.618633,205.736673 203.618633,205.736673 L205.756108,210.880607 C205.756108,210.880607 209.095916,217.136744 207.626402,216.997717 C206.156888,216.85869 204.153,213.800138 203.485039,213.800138 C202.817077,213.800138 200.813193,212.965985 200.946787,212.409886 C201.080381,211.853787 202.015541,210.185481 202.015541,210.185481 L198.783441,204.326409 C198.159366,203.195392 197.687655,201.980466 197.381556,200.715745 C197.049544,199.343496 196.671849,197.662556 196.671849,197.11711 C196.671849,196.143933 194,195.726858 194,195.726858 L196.805424,191 Z" id="Path" fill="#FFB9B9" fill-rule="nonzero"></path>
                <path d="M183.789142,181 L185.609743,186.703327 C185.609743,186.703327 188.470687,187.558828 190.551373,188.271744 C192.632058,188.98466 196.533347,187.986577 196.923475,189.697576 C197.313604,191.408575 196.143219,194.402821 194.972832,195.115736 C193.802445,195.828652 193.15223,196.541568 189.380985,195.400904 C185.60974,194.260239 176.63678,193.975072 176.63678,193.975072 C175.766947,194.547295 174.78732,194.889053 173.775835,194.973155 C172.085275,195.115736 171.695147,195.258322 171.174977,194.830569 C170.654808,194.402817 171.435061,194.402821 171.695156,193.262156 C171.955252,192.121491 172.085284,192.54924 173.255672,191.26599 C174.426059,189.98274 175.33636,186.132997 175.986574,184.849747 C176.636789,183.566497 177.026932,181 177.026932,181 L183.789142,181 Z" id="Path" fill="#2F2E41" fill-rule="nonzero"></path>
                <path d="M184,164.390271 C182.948104,165.305426 182.314324,166.75191 182.285714,168.302804 C182.285714,170.854456 178,165.581039 178,165.581039 C178,165.581039 180.285716,162.178835 180.285716,161.158176 C180.285716,160.137517 184,164.390271 184,164.390271 Z" id="Path" fill="#FFB9B9" fill-rule="nonzero"></path>
                <path d="M178.350855,164 C178.350855,164 180.790833,164.963094 181.333051,166.338941 C181.87527,167.714788 183.908592,170.604082 183.908592,170.604082 C183.908592,170.604082 186.755232,173.630946 185.806351,176.932977 C184.85747,180.235008 184.044145,181.060522 184.044145,181.610858 C184.044145,182.161195 182.688601,183.124292 181.604167,182.986706 C180.519733,182.849119 176.453099,182.298782 176.18199,181.748445 C175.91088,181.198108 174.284231,173.355776 175.368665,170.466501 C176.248373,168.258553 177.243859,166.099966 178.350855,164 L178.350855,164 Z" id="Path" fill="#D0CDE1" fill-rule="nonzero"></path>
                <path d="M184.895146,160.698899 C185.743508,160.924915 186.576041,160.318154 187.271183,159.716572 C187.665913,159.374966 188.100344,158.887812 187.979403,158.338041 C187.872106,157.850306 187.36025,157.573848 187.285756,157.078138 C187.233985,156.733685 187.413356,156.398561 187.427895,156.049432 C187.401657,155.506997 187.108086,155.026287 186.666835,154.803228 C186.253499,154.553379 185.784713,154.449209 185.360091,154.225611 C184.711664,153.884163 184.172765,153.268637 183.480245,153.071466 C182.534163,152.802105 181.570828,153.37562 180.598159,153.449866 C180.009529,153.494797 179.413382,153.355465 178.831078,153.463862 C177.687967,153.723326 176.852339,154.828622 176.810177,156.136934 C176.802675,156.603982 176.885817,157.12506 176.637551,157.495465 C176.539434,157.62304 176.42771,157.736584 176.304897,157.833539 C175.439896,158.618778 175.047166,159.930665 175.002515,161.19453 C174.980539,161.8166 175.096612,162.555533 175.588247,162.819946 C175.851597,162.921122 176.129821,162.964514 176.407767,162.947757 C176.691315,162.934381 176.962335,163.079632 177.131346,163.335555 C177.355277,163.779024 177.019764,164.434027 177.312696,164.821031 C177.532736,165.111726 177.961928,165.015179 178.218897,164.767483 C178.475865,164.519786 178.636123,164.163555 178.879714,163.898692 C179.353567,163.383471 180.056447,163.290081 180.705943,163.211753 C180.898412,163.210092 181.085641,163.141173 181.241614,163.014572 C181.359625,162.875552 181.436375,162.69891 181.461313,162.508931 C181.54685,162.071713 181.547955,161.618997 181.464551,161.18126 C181.423345,161.045744 181.418146,160.899699 181.449587,160.760924 C181.492517,160.662296 181.558864,160.578882 181.641318,160.519868 C182.043875,160.180418 182.749084,159.68618 183.272241,159.779666 C183.85282,159.88341 184.30954,160.542873 184.895146,160.698899 Z" id="Path" fill="#2F2E41" fill-rule="nonzero"></path>
                <path d="M179.515787,169.066463 C179.515787,169.066463 178,171.245409 178,173.832898 C178,176.420386 179.894737,185 180.905263,185 C181.915788,185 190,180.233565 190,180.233565 L188.86316,177.918433 L183.052632,180.642117 C183.052632,180.642117 183.810525,167.976996 179.515787,169.066463 Z" id="Path" fill="#D0CDE1" fill-rule="nonzero"></path>
                <rect id="Rectangle" fill="#F19D5C" fill-rule="nonzero" x="167" y="195" width="30" height="6"></rect>
                <path d="M182.83904,202 C181.823366,202 181,200.937847 181,199.627615 L181,123.372388 C181,122.062156 181.823366,121.000003 182.83904,121.000003 L182.83904,121.000003 C183.262077,120.999169 183.672292,121.187283 184,121.53239" id="Path" stroke="#3F3D56" stroke-width="2"></path>
                <path d="M15,227 L264,227" id="Path" stroke="#3F3D56" stroke-width="2"></path>
                <ellipse id="Oval" fill="#F19D5C" fill-rule="nonzero" transform="translate(176.513508, 158.241855) rotate(-38.768250) translate(-176.513508, -158.241855) " cx="176.513508" cy="158.241855" rx="1" ry="1"></ellipse>
                <path d="M151.26659,215.707521 C148.285549,220.678084 149.102365,227 149.102365,227 C149.102365,227 154.75237,225.263042 157.73341,220.292482 C160.714451,215.321923 159.897635,209 159.897635,209 C159.897635,209 154.247621,210.736958 151.26659,215.707521 Z" id="Path" fill="#3F3D56" fill-rule="nonzero"></path>
                <path d="M153.988734,216.185687 C153.745029,222.260818 149.55873,227 149.55873,227 C149.55873,227 145.76756,221.889447 146.011265,215.814313 C146.254971,209.739179 150.44127,205 150.44127,205 C150.44127,205 154.232443,210.110553 153.988734,216.185687 Z" id="Path" fill="#F19D5C" fill-rule="nonzero"></path>
                <path d="M100.414167,217.162377 C101.785662,223.237506 106.483289,227 106.483289,227 C106.483289,227 108.957316,220.912752 107.585833,214.837623 C106.21435,208.762494 101.516709,205 101.516709,205 C101.516709,205 99.042684,211.087248 100.414167,217.162377 Z" id="Path" fill="#3F3D56" fill-rule="nonzero"></path>
                <path d="M102.351933,215.490438 C106.49407,219.632573 107,226 107,226 C107,226 100.790203,225.6517 96.6480665,221.509562 C92.5059301,217.367424 92,211 92,211 C92,211 98.2098098,211.3483 102.351933,215.490438 Z" id="Path" fill="#F19D5C" fill-rule="nonzero"></path>
                <path d="M88.9764823,57.2681884 C88.6255781,63.343319 84.364632,68 84.364632,68 C84.364632,68 80.6726134,62.8069455 81.0235176,56.7318116 C81.3744219,50.6566776 85.6353712,46 85.6353712,46 C85.6353712,46 89.3273866,51.1930545 88.9764823,57.2681884 Z" id="Path" fill="#F19D5C" fill-rule="nonzero"></path>
                <path d="M45.5933298,19.3741987 C50.2877483,22.606155 52,28.8519781 52,28.8519781 C52,28.8519781 46.1010918,29.8577609 41.4066702,26.6258013 C36.7122486,23.3938417 35,17.1480219 35,17.1480219 C35,17.1480219 40.8989175,16.1422391 45.5933298,19.3741987 Z" id="Path" fill="#F19D5C" fill-rule="nonzero"></path>
                <path d="M34.5933298,93.3741987 C39.2877483,96.606155 41,102.851978 41,102.851978 C41,102.851978 35.1010918,103.857761 30.4066702,100.625801 C25.7122486,97.3938417 24,91.1480219 24,91.1480219 C24,91.1480219 29.8989175,90.1422391 34.5933298,93.3741987 Z" id="Path" fill="#F19D5C" fill-rule="nonzero"></path>
                <path d="M60.5933298,121.374199 C65.2877483,124.606155 67,130.851978 67,130.851978 C67,130.851978 61.1010918,131.857761 56.4066702,128.625801 C51.7122486,125.393842 50,119.148022 50,119.148022 C50,119.148022 55.8989175,118.142239 60.5933298,121.374199 Z" id="Path" fill="#F19D5C" fill-rule="nonzero"></path>
                <path d="M130.604458,30.1336601 C129.259917,36.208795 124.565496,40 124.565496,40 C124.565496,40 122.051002,33.9414713 123.395543,27.8663399 C124.740084,21.7912085 129.434505,18 129.434505,18 C129.434505,18 131.948997,24.0585392 130.604458,30.1336601 Z" id="Path" fill="#F19D5C" fill-rule="nonzero"></path>
                <path d="M175.389191,34.3504902 C173.660961,40.4256229 168.37076,44 168.37076,44 C168.37076,44 165.882574,37.7246424 167.610813,31.6495098 C169.339053,25.5743771 174.629235,22 174.629235,22 C174.629235,22 177.117424,28.2753576 175.389191,34.3504902 Z" id="Path" fill="#F19D5C" fill-rule="nonzero"></path>
                <path d="M223.755014,99.2741082 C220.778115,104.24467 215.109843,106 215.109843,106 C215.109843,106 214.268085,99.6964632 217.244986,94.7258918 C220.221888,89.7553204 225.890157,88 225.890157,88 C225.890157,88 226.731915,94.3035466 223.755014,99.2741082 Z" id="Path" fill="#F19D5C" fill-rule="nonzero"></path>
            </g>
        </g>
    </g>
</svg>